<?xml version="1.0" encoding="utf-8"?>
<!-- Generator: Adobe Illustrator 15.1.0, SVG Export Plug-In . SVG Version: 6.00 Build 0)  -->
<!DOCTYPE svg PUBLIC "-//W3C//DTD SVG 1.1//EN" "http://www.w3.org/Graphics/SVG/1.1/DTD/svg11.dtd">

<svg fill="url(#Gradient2)" version="1.1" id="Layer_1" xmlns="http://www.w3.org/2000/svg" xmlns:xlink="http://www.w3.org/1999/xlink" x="0px" y="0px"
	 width="1600px" height="1260px" viewBox="0 0 1600 1260" enable-background="new 0 0 1600 1260" xml:space="preserve">
<defs>
	<linearGradient id="Gradient2" x1="0" x2="0" y1="0" y2="1">
		<stop offset="0%" stop-color="#49585c"/>
		<stop offset="100%" stop-color="#49585c" stop-opacity="0"/>
	</linearGradient>
</defs>
<g>
	<path fill-rule="evenodd" clip-rule="evenodd" d="M598.998,349c7.906,0.246,14.591,6.547,14.005,12.001
		C607.429,357.908,601.765,354.899,598.998,349z"/>
	<path fill-rule="evenodd" clip-rule="evenodd" d="M627,489c-1.868,9.2-12.451,23.494-17,30
		C608.226,511.072,618.679,494.605,627,489z"/>
	<path fill-rule="evenodd" clip-rule="evenodd" d="M562.002,502c0.887,0.443,1.786,0.879,1.998,2
		c-4.753,10.58-2.828,27.836-9.998,36.001C553.355,527.95,556.419,511.139,562.002,502z"/>
	<path fill-rule="evenodd" clip-rule="evenodd" d="M553.001,563.001c1.001,0,2.002,0,2.999,0c0.338,6.417,4.244,18.504,1.001,21.999
		C551.317,582.018,553.783,570.883,553.001,563.001z"/>
	<path fill-rule="evenodd" clip-rule="evenodd" d="M610,578.001c1.164-0.163,1.782,0.22,2.002,0.999
		c2.499,4.648-1.106,20.117-2.002,28C603.014,601.549,609.528,585.771,610,578.001z"/>
	<path fill-rule="evenodd" clip-rule="evenodd" d="M530.003,672.998c7.487,4.261,11.173,17.388,12.996,24.004
		C535.297,692.961,531.151,680.286,530.003,672.998z"/>
	<path fill-rule="evenodd" clip-rule="evenodd" d="M271,781.002c-7.308,0.176-14.86-7.71-19-14.001
		C259.548,766.586,266.309,775.261,271,781.002z"/>
	<path fill-rule="evenodd" clip-rule="evenodd" d="M983.005,766c8.626,10.701,2.555,36.108,14.998,43.001
		c11.653-6.746,3.816-33.17,18.001-32.999c5.746,0.068,4.599,5.631,8,9c4.354,4.313,11.206,5.29,12.996,9.998
		c2.881-2.653-2.563-6.034,0-9.001c11.564-1.978,16.977,10.177,25,15.003c-9.822,3.34-12.662-8.562-20.003-11.003
		c-0.643,2.185,1.855,6.522-1.994,9.001c-11.759-2.576-17.188-11.483-23.999-18.999c-11.23,6.035-3.189,31.678-17,33
		c-16.325,1.563-11.467-29.443-18.001-43.001c-6.479,5.188-7.048,16.284-12.004,23.002c0.586,8.203,2.344,16.728-3.996,19.999
		c-2.14,0.468-1.904-1.428-2.002-2.999c-2.53,2.47,0.146,10.141-5.997,8.997c1.676-10.653,2.896-21.762,2.994-33.997
		c-5.362-1.51-6.372,4.892-10.001,1.998c-0.839-6.449,8.455-7.17,13.004-5.001c2.946,8.134-0.626,17.899,0,27.002
		c2.759,0.428,0.937-3.727,3.003-4c-3.922-17.098,6.649-26.985,10.995-39.001C979.001,766,981.003,766,983.005,766z"/>
	<path fill-rule="evenodd" clip-rule="evenodd" d="M943.999,796.001c-3.027,0.032-2.49-3.508-2.995-6.002
		c-10.416,7.283-26.725,1.726-36.002,6.002c0.317-10.661,13.565-4.11,21.997-5.001C934.689,790.187,949.769,778.333,943.999,796.001
		z"/>
	<path fill-rule="evenodd" clip-rule="evenodd" d="M916.997,799c-8.146,6.571-11.76,22.839-21.997,23.999
		C901.673,814.954,905.596,798.995,916.997,799z"/>
	<path fill-rule="evenodd" clip-rule="evenodd" d="M1046.001,801.998c1.001,0,2.002,0,3.003,0
		c4.899,10.1,15.015,14.982,20.996,24.004C1057.215,822.783,1050.493,813.506,1046.001,801.998z"/>
	<path fill-rule="evenodd" clip-rule="evenodd" d="M1599.997,809.001c0,1.331,0,2.665,0,4c-37.166-8.517-72.673,5.273-91.992,23.999
		c15.104-11.148,44.922-20.772,71.997-18.001c5.876,0.603,15.096,1.29,17,7.999c-37.972-10.001-91.495,0.644-102.002,34.001
		c0.317,2.348,3.093,2.238,4.004,4c14.853-8.064,31.616-21.159,53.996-22.998c20.532-1.688,32.967,3.523,46.997,9.001
		c0,1.33,0,2.665,0,4c-20.735-11.837-59.294-11.483-78.996,1c26.75-4.776,60.604,1.348,78.996,13.998c0,1.668,0.008,3.332,0,5.001
		c-18.449-13.855-58.96-22.075-86.995-10.999c14.339,1.66,24.112,7.882,30.997,17c21.623,2.711,42.912,5.758,53.003,20
		c-15.836-6.832-30.777-14.555-52.002-16c-1.717,4.285-1.741,10.259-4.996,12.997c23.453,7.548,42.684,19.315,59.993,33.004
		c0,1.33,0,2.665,0,3.999c-23.982-9.464-46.509,3.76-63.997,10.999c-12.402,5.135-25.863,10.681-39.999,11.999
		c-24.178,2.255-33.113-7.242-52.002-14.998c-12.979-5.33-30.965-6.055-39.998-14.001c-26.294-23.141,40.096-46.692,45.003-17.001
		c0.082,5.632-4.956-0.081-6.006,4c12.053,19.568,30.819-13.77,11.003-18.998c11.353-16.553,55.599-27.112,75-11.003
		c0.496,5.807-5.444,6.478-1.001,11.003c7.015,2.641,11.662-3.735,12.004-9.001c1.285-19.897-31.088-17.574-48.007-22.001
		c0.058-1.721-0.765-2.563-1.993-2.999c-0.977-11.063,3.499-17.639,9-23.999C1518.56,816.37,1565.329,798.723,1599.997,809.001z
		 M1459.999,895c1.294,3.711,3.897,6.104,6.998,8c13.672-6.747,35.954-9.941,56.006-6.999c-1.863-3.467,0.473-5.326,1.001-9.001
		C1505.116,875.892,1473.939,885.661,1459.999,895z M1489.003,901.002c-7.927,1.399-18.393,1.685-21.005,7.999
		c39.404-8.061,73.349,5.737,95.004,22.002c6.681-4.948,17.179-1.754,25-4.004C1566.045,909.958,1529.025,893.934,1489.003,901.002z
		 M1403,920c1.799,9.069,14.616,9.403,23.999,13c5.493-8.512,12.468-15.535,17-25C1431.76,897.657,1399.403,901.84,1403,920z
		 M1467.998,913.001c-2.588,10.148-17.236,17.749-26.993,9.001c-2.775,4.562-7.983,6.686-10.002,11.999
		c14.355,6.356,25.407-3.743,42-5c17.18-1.303,32.707,0.72,44.995,3.999c7.536,2.011,14.478,7.056,20.004,6.999
		c6.729-0.065,14.127-6.791,19.002-8C1536.846,917.054,1503.977,905.628,1467.998,913.001z M1447.002,939.999
		c13.493,5.933,28.524,15.613,47.998,14.002c13.933-1.152,26.807-6.649,37.004-12
		C1510.349,932.854,1469.594,928.231,1447.002,939.999z"/>
	<path fill-rule="evenodd" clip-rule="evenodd" d="M876.998,816c-1.351,5.981-8.626,6.038-13.997,8
		C860.967,818.522,873.174,815.512,876.998,816z"/>
	<path fill-rule="evenodd" clip-rule="evenodd" d="M995,814.999c1.001,0,2.002,0,3.003,0c0.456,5.229,3.264,13.371,1.001,18.001
		C993.381,831.76,995.188,818.421,995,814.999z"/>
	<path fill-rule="evenodd" clip-rule="evenodd" d="M1004.001,818.999c1.001,0,2.002,0,3.003,0c1.358,10.384,7.739,20.821,7.999,29
		C1006.45,843.218,1005.864,830.465,1004.001,818.999z"/>
	<path fill-rule="evenodd" clip-rule="evenodd" d="M955.002,822.002c1.001,0,2.002,0,3.003,0c1.033,3.715-1.799,11.283-4.004,14.998
		C948.133,834.733,954.692,827.125,955.002,822.002z"/>
	<path fill-rule="evenodd" clip-rule="evenodd" d="M838.001,833c0-1.334,0-2.665,0-4c4.671,0.737,9.709-5.619,11.995-1
		C848.377,832.04,842.884,832.219,838.001,833z"/>
	<path fill-rule="evenodd" clip-rule="evenodd" d="M889.002,837c-1.627,5.709-5.289,9.375-11.002,10.999
		C876.998,843.93,884.445,835.515,889.002,837z"/>
	<path fill-rule="evenodd" clip-rule="evenodd" d="M949.997,842.001c1.619-0.28,1.725,0.944,3.003,1.001
		c-0.562,4.105,0.789,10.124-4.997,8.996C947.759,847.763,948.923,844.918,949.997,842.001z"/>
	<path fill-rule="evenodd" clip-rule="evenodd" d="M527,885.002c-4.663-2.478-9.668-1.221-14.999,0
		c11.759,10.083,10.352,40.979-4.004,46.997c-17.13,5.371-21.525-17.896-6.999-18.998c-9.196-32.694-50.977,1.978-74-10.001
		c2.344-5.632,7.353-0.937,12-1.001c24.532-0.326,66.792-24.175,66.003,16.003c-2.836,2.299-7.983-2.169-9.001,2.999
		c6.869,17.875,23.047-1.831,19.995-19.999C513.711,887.354,500.259,883.562,494,879c3.142-5.098,10.254,2.137,13.998,2.999
		c12.036-6.921,39.193,0.732,29.004,15.003c-4.529-1.424,2.145-9.266-5.001-9.001C516.698,895.383,539.419,910.563,547,899
		c1.831-2.169-0.187-8.188,1.998-9.998c4.639-0.635,2.535,5.465,3.003,8.997c3.174-0.822,4.81-3.19,6.999-4.997
		c-0.041-24.296-18.839-29.83-38.998-34.001c0-0.667,0-1.334,0-2.002c22.066-4.724,56.722,22.335,37,44.003
		c-4.842-2.963-9.786,4.874-16.003,5.997C527.277,909.485,516.616,896.359,527,885.002z"/>
	<path fill-rule="evenodd" clip-rule="evenodd" d="M837,1017.001c-11.076-4.594-18.277-13.054-23.999-23.002
		C820.879,997.856,831.385,1007.565,837,1017.001z"/>
	<path fill-rule="evenodd" clip-rule="evenodd" d="M776,1022.002c-11.67-1.722-23.136-12.154-30.998-21
		c0.887-0.777,2.254-1.074,4-1.001C756.118,1009.217,769.106,1012.562,776,1022.002z"/>
	<path fill-rule="evenodd" clip-rule="evenodd" d="M43,1124c1.615-0.281,1.723,0.948,3,1.001c1.329,11.405,10.899,19.674,10,30.001
		C48.8,1148.146,42.906,1134.84,43,1124z"/>
	<path fill-rule="evenodd" clip-rule="evenodd" d="M488.003,1255.913c-12.467-7.536-21.688-18.311-34-26.001
		c-1.16,1.481-1.16,2.523,0,4C464.22,1241.127,474.941,1258.176,488.003,1255.913z"/>
	<path fill-rule="evenodd" clip-rule="evenodd" d="M1225.998,1145c-12.085,3.589-33.188-0.691-41-8
		C1196.399,1138.001,1213.53,1141.761,1225.998,1145z"/>
	<path fill-rule="evenodd" clip-rule="evenodd" d="M552,1256.914c-5.029-7.043-13.851-15.385-21.997-15.999
		C534.911,1248.076,544.342,1255.804,552,1256.914z"/>
	<path fill-rule="evenodd" clip-rule="evenodd" d="M1290.004,1210.003c0.667,0,1.334,0,1.993,0
		c6.673,0.565,6.526,14.363-1.993,12.996C1290.004,1218.666,1290.004,1214.336,1290.004,1210.003z"/>
	<path fill-rule="evenodd" clip-rule="evenodd" d="M1354.001,1210.003c1.465,0.87,3.874,0.793,3.003,3.999c-1.335,0-2.67,0-4.004,0
		C1352.576,1211.911,1353.684,1211.354,1354.001,1210.003z"/>
	<path fill-rule="evenodd" clip-rule="evenodd" d="M1383.998,1217.001c-1.791,0.126-2.108-1.225-3.996-1.001
		c-1.025-4.023,1.555-4.443,3.003-5.997C1385.91,1210.019,1385.365,1215.654,1383.998,1217.001z"/>
	<path fill-rule="evenodd" clip-rule="evenodd" d="M1409.999,1210.003c1.44,0.558,2.441,1.558,3.003,2.999
		c-0.122,2.543-1.457,3.877-4.004,3.999C1406.728,1214.182,1407.102,1211.928,1409.999,1210.003z"/>
	<path fill-rule="evenodd" clip-rule="evenodd" d="M1473.003,1214.999c-1.294,1.38-4.346,0.993-6.998,1.001
		C1463.726,1208.371,1473.939,1208.656,1473.003,1214.999z"/>
	<path fill-rule="evenodd" clip-rule="evenodd" d="M1548.003,1210.003c3.32-0.204,3.931,4.943,1.994,6.998
		C1545.488,1217.127,1545.229,1211.911,1548.003,1210.003z"/>
	<path fill-rule="evenodd" clip-rule="evenodd" d="M1357.004,1217.001c0.838,1.16,1.318,2.682,1.001,5.001
		C1353.064,1225.229,1349.289,1216.244,1357.004,1217.001z"/>
	<path fill-rule="evenodd" clip-rule="evenodd" d="M1515.004,1222.999c-2.637,0.306-3.288-1.384-3.003-4c1.334,0,2.669,0,4.004,0
		C1516.428,1221.091,1515.313,1221.648,1515.004,1222.999z"/>
	<path fill-rule="evenodd" clip-rule="evenodd" d="M1533.005,1218.999c1.66,0,3.328,0,4.997,0c-0.122,2.548-1.457,3.878-4.004,4
		C1533.225,1222.112,1532.924,1220.74,1533.005,1218.999z"/>
	<path fill-rule="evenodd" clip-rule="evenodd" d="M1151.242,1262.151c1.741,0.004,3.479,0.012,5.216,0.016
		c0.407-5.322,9.497-7.759,9.741,0.028c1.355,0.005,2.715,0.009,4.069,0.013C1170.578,1249.135,1153.354,1250.867,1151.242,1262.151
		z"/>
	<path fill-rule="evenodd" clip-rule="evenodd" d="M620.805,1258.461c-1.953-0.017-3.908-0.029-5.861-0.045
		c2.297,0.59,4.639,1.11,7.056,1.497C621.646,1259.368,621.227,1258.916,620.805,1258.461z"/>
	<path fill-rule="evenodd" clip-rule="evenodd" d="M275.116,1062.017c0.954-0.041,1.852-0.139,2.885-0.102
		C277.075,1061.703,276.109,1061.76,275.116,1062.017z"/>
	<path fill-rule="evenodd" clip-rule="evenodd" d="M52,1117.912c1.65,2.031-7.182,14.612-3.001,20
		c-30.516,17.477-34.002,85.233-15.379,119.177c1.428-0.008,2.858-0.016,4.287-0.028c-17.676-32.512-15.601-94.723,11.092-115.148
		c3.754-0.753,2.181,3.82,5.001,3.999c-7.054,13.354-18.311,32.927-13,52.002c4.478-16.857,6.209-36.458,16.001-47.998
		c3.147,1.519,6,3.333,10,4c-13.259,37.231-1.266,81.36,21.633,102.832c1.849-0.008,3.703-0.008,5.552-0.016
		C70.119,1235.434,57.713,1192.2,71,1153.915c3.361,0.98,11.898-0.492,15-3.003c-8.315,44.82,11.062,83.228,34.392,105.746
		c1.941-0.004,3.88-0.009,5.821-0.013c-8.628-7.548-17.206-18.563-22.213-26.733c-15.308-24.972-21.497-58.825-9.001-87
		c2.364-2.303,9.882,0.55,11.001-2.998c-2.059,18.221-0.859,44.43,6,63c2.378,6.441,10.846,25.354,14.001,25
		c3.375-0.378-8.458-22.705-10.001-27.002c-14.864-41.361-3.809-94.1,28.001-108c0.333,0,0.667,0,0.999,0
		c0.85-0.183,0.944,0.391,1.001,1.002c5.79,2.604-7.359,9.619-10,13c-34.816,44.58-6.891,122.774,30.945,149.617
		c2.45,0,4.897-0.016,7.347-0.016c-10.296-7.129-20.715-17.484-27.293-26.604c-25.028-34.688-35.976-106.799,6.002-130.998
		c-0.165,3.162,2.657,3.341,2,6.999c-0.021,3.422-5.662,1.354-7.001,6.999c-1.259,5.313,0.716,9.265,5.001,12.003
		c-18.99,49.87,5.646,103.614,43,118.999c-1.329-6.93-8.952-8.574-14-13.001c-23.464-20.577-42.792-62.565-25-105.001
		c15.352-0.98,21.93-10.734,21-27.999c5.654-4.012,11.469-7.865,20.998-7.999c2.5,2.535-6.559,6.416-8.999,9
		c-11.403,12.077-17.511,29.326-16.001,51.001c3.207,45.972,36.961,86.108,69.56,106.612c1.998,0,3.992,0,5.987,0.004
		c-7.985-4.679-15.604-10.347-20.546-14.619c-34.617-29.916-80.725-109.339-23.999-147.998c3.953,5.713,7.788,11.543,8.999,19.999
		c-9.906,1.773-14.429,17.354-2.999,23.999c1.45,47.521,30.269,83.463,62,99.003c-5.754-9.306-16.479-13.48-24.001-21
		c-18.259-18.262-31.791-42.64-33.999-77.002c8.354,0.354,14.587-1.412,17-6.999c1.854,36.157,15.67,65.649,35.999,80.001
		c-3.782-9.599-12.887-18.254-19-30.001c-10.325-19.845-17.279-47.607-6.999-75c2.368,2.633,3.292,6.71,4,10.998
		c-11.261,6.775-7.263,29.273,11,22.002c3.992,55.005,29.484,88.513,66.998,110.002c-4.388-9.563-15.116-13.551-22.998-21.001
		c-14.007-13.244-26.546-31.478-34-54c-3.53-10.669-7.981-25.887-6-37.003c1.584-8.899,11.121-19.886,4-33
		c3.056-6.941,6.984-13.013,11-18.998c2.908,2.759,6.639,4.695,12.999,4c-44.95,51.729-1.015,120.251,35,151.001
		c6.655,5.681,12.982,11.987,19.912,15.841c1.902,0.008,3.802,0.012,5.705,0.02c-6.274-7.315-15.737-12.08-23.615-18.863
		c-22.817-19.637-50.938-51.217-52.002-92.001c-0.925-35.519,18.38-59.773,45.001-72.998c1.162-0.162,1.778,0.22,2,1.001
		c2.865,4.105-3.141,6.445-3.001,10.999c0.584,10.104,14.018,9.484,18.001,6.002c-1.304,9.696-6.035,15.967-12.002,21
		c-0.791-28.219-45.186-10.596-27.999,14.998c2.425,3.613,6.671,3.983,12,8c4.551,3.435,10.801,12.313,22.001,9.001
		c-4.185,9.48-11.531,15.804-21,19.999c-4.506-4.293-3.579-10.364-9.001-12c-12.492-3.768-18.455,7.426-17,17.001
		c2.405,15.812,27.242,19.905,40,9c3.202,1.465,5.556,3.776,11,2.999c9.546,28.788,28.074,48.597,50.999,64.002
		c-0.981-8.907-11.096-12.143-17-18.002c-12.199-12.101-23.124-26.981-29-44.999c5.266-4.736,14.168-5.831,17-13
		c8.313,17.354,13.505,37.825,30.001,47.001c-2.197-7.251-9.058-14.1-14.001-23.002c-4.659-8.391-9.46-16.977-12-26.998
		c5.143-9.192,20.003-8.663,22.001-21.001c4.159,3.162,2.145,10.849,2.999,17.001c3.141,22.551,14.559,41.87,28.003,58
		c12.923,15.507,28.32,32.161,47.998,34.997c-36.003-23.995-70.557-49.442-72.001-108c20.854,2.853,18.648-17.354,32.003-21.997
		c-5.575,31.909,2.905,65.271,17,83.997c0.968-7.854-5.664-17.411-9.001-29c-8.521-29.573-7.56-81.6,17-93.998
		c8.521-4.305,16.289-0.407,22.998,5.001c-28.402,6.461-40.991,50.851-27.002,80.997c2.743-7.312-2.055-16.023-1.998-26.001
		c0.061-11.519,3.82-27.799,9.998-36.999c5.811-8.65,19.189-19.584,29.004-6.999c-20.296,3.735-30.668,21.835-32.003,44.999
		c-2.899,50.387,28.644,92.018,63.78,110.738c2.806,0.021,5.611,0.037,8.417,0.058c-36.757-18.376-69.488-57.361-68.196-106.796
		c0.537-20.467,7.621-43.107,31.001-43.998c5.424,9.505,10.714,23.584,8,38c-1.241,2.198-6.909-2.958-10.999-3.002
		c-26.693-0.27-20.467,50.825,10.999,40.002c1.99,12.679,6.254,23.08,13,30.998c-18.339,3.886-13.135,29.748,5.998,30.001
		c16.817,0.224,21.297-18.481,34-19.999c10.95,14.176,24.243,30.672,42.536,35.273c0.854,0.004,1.707,0.013,2.562,0.021
		c-14.036-11.426-31.584-19.344-40.096-36.296c5.172-7.828,11.475-14.521,12-26.997c6.305,32.319,25.795,56.001,54.944,63.501
		c1.953,0.016,3.908,0.028,5.861,0.045c-3.985-4.306-10.693-4.908-15.802-7.549c-14.925-7.706-30.652-23.201-37.004-39.998
		c-5.762-15.234-0.977-26.722,0-42c12.622-7.715,21.444-19.223,22.998-38.001c5.119,13.631,4.476,34.144-0.997,47.001
		c-2.495-0.842-5.359-1.31-9.001-1.001c-4.154,1.514-6.319,5.014-9,8c-5.326,28.166,32.898,23.856,38,8
		c2.792,9.92,13.485,22.163,4,30.001c-5.351-10.824-21.684-4.753-22.001,6.001c-0.569,19.527,30.257,19.349,40.002,4.997
		c6.238,8.817,16.231,19.039,26.998,20.003c-5.554-9.899-26.681-14.493-22.998-27.002c1.953-1.904,4.968,2.828,6.999,5.001
		c6.282,6.718,15.849,18.962,26.001,18.998c-7.369-10.461-48.755-31.47-18.001-42.997c5.127,11.874,11.133,22.864,22.001,29
		c-3.043-13.351-25.004-23.499-17.997-44.002c10.506,7.161,26.994,8.341,31.999,21c-16.227,2.653-7.552,22.038,8,19.002
		c22.481-4.391,8.268-42.114-3.003-48.002c7.027-1.64,13.517-3.816,13.004-13.001c9.086,21.912,19.466,42.534,37.997,55.001
		c0.521-6.29-7.292-10.136-12-15.999c-10.567-13.172-26.616-40.788-25.997-63.001c0.358-12.996,6.934-24.869,22.998-21
		c-9.489,5.518-14.535,13.688-13,31.002c3.813,43.026,46.24,87.293,84.996,89.999c-5.495-5.66-14.997-6.075-22.996-10.002
		c-25.082-12.309-54.232-43.979-58-77.999c-1.892-17.073,4.142-34.688,22.998-29c-36.45,21.334,1.924,87.586,27.002,97.001
		c-0.912-7.897-10.372-11.441-17-19.002c-10.832-12.35-21.664-31.885-21-51.998c0.5-15.063,12.251-30.778,23.002-14.002
		c-7.8,2.475-10.587,14.372-8,24c-17.672-0.562-10.889,23.844,5.998,19.002c5.794,12.87,13.672,23.661,25,30.998
		c-2.572-11.149-17.245-18.714-21-31.999c9.705-0.627,12.321-8.346,21-9.998c10.563,31.779,32.143,57.846,63.002,66
		c-2.091-6.596-9.952-6.312-15.999-10.002c-22.038-13.428-50.617-46.057-37.002-72.001c0.676,50.374,48.948,84.139,96.002,89.002
		c-3.662-5.168-10.75-5.469-16.007-6.999c-38.029-11.08-71.873-35.458-75.999-79c10.479,1.525,21.458,2.543,33.998,1.998
		c-10.814,20.382,8.105,39.652,23.007,47.001c-2.637-10.896-25.879-20.487-23.007-38.001c0.31-1.88,2.637-4.565,4.004-6.998
		c20.191,0.81,35.214,6.787,38.998,23.999c-29.695-7.044-10.385,38.322,8,18.998c13.924,13.221,32.91,20.833,53.003,27.002
		c19.767,6.071,37.874,19.535,59,18.998c-8.057-6.026-18.514-6.75-28.003-10.998c-25.992-11.634-58.211-17.978-79.996-37
		c3.214-5.484,7.999-13.497,4.996-22.001c8.529,7.837,9.14,25.085,23.007,30.001c7.259,2.571,19.815-0.041,29.996,2.999
		c9.392,2.804,23.584,13.122,36.996,2.999c21.997,8.357,41.927,24.063,65.006,28.002c-17.651-12.023-39.844-19.494-59-30
		c27.026,2.97,46.598,22.066,72.998,29c-2.238-5.974-9.921-7.378-14.999-10.002c-15.079-7.784-31.844-16.569-50-21.997
		c5.933-4.065,14.47-5.526,19.995-10.002c27.06,20.956,61.377,39.954,95.004,51.001c-0.659-5.929-8.252-5.448-12.004-6.998
		c-11.775-4.888-23.055-13.221-34.993-19.003c-16.276-7.878-34.335-14.754-42.001-29c5.225-2.441,11.459-3.873,17.001-6.002
		c13.387,12.285,26.204,25.131,46.997,30.001c-4.094-7.397-14.592-9.297-21.997-13.997c-7.455-4.732-14.438-10.47-18.002-16.004
		c17.172-0.716,29.818,5.421,37.997,15.003c13.037,15.271,20.279,37.932,32.963,51.106c2.718,0.009,5.437,0.017,8.15,0.028
		c-7.972-4.772-13.407-13.813-19.108-22.135c-13.672-19.93-19.539-44.218-48.006-48.002c-37.655-5.001-57.397,24.942-87.997,29
		c-10.555,1.403-14.298-3.541-21.004-5.998c-9.709-3.564-20.427-0.464-29.997-2.999c-18.799-4.984-15.82-36.625-37.004-38.001
		c2.043,5.029,6.73,8.053,7.008,14.999c0.398,10.192-13.379,29.179-24,17c-2.904-3.324-3.987-13.961,4.997-13
		c6.259,0.342-1.221,3.426,2.002,6.001c11.157-1.587,6.503-16.031,1.994-22.001c-16.374-21.695-63.803-11.49-86.994-26.001
		c0.586,5.917,3.503,15.813-4.004,19.999c-2.946-1.302,2.856-7.377-1.998-7.999c-4.097,3.918-2.063,7.552-6.001,12.003
		c-8.073,9.119-36.996,10.385-25-4.004c4.679-1.347,1.969,4.7,5,5.001c16.248-3.687,15.434-25.179,8-36.999
		c-12.663-20.138-44.894-13.339-60.999-26.998c-14.787-12.541-16.878-37.513-41-33c3.568,5.233,11.458,4.049,17.997,8.997
		c10.808,8.183,25.769,39.412,12,49.003c-4.813,3.353-17.92,4.15-15.999-7.003c3.507-3.292,4.28-2.271,9-0.997
		c-0.244-32.503-33.435-58.395-69.002-46c1.746,5.302,5.949,3.923,10.002,6.999c17.924,13.603,29.097,61.881,4,75
		c1.021-5.884,3.259-21.11-1.998-23.999c0.044,21.806-6.689,58.028-28.003,60.998c-7.935,1.107-18.144-3.576-15.999-14.001
		c2.144-10.409,16.333-7.609,15.999,1.001c6.185-0.83-0.032-7.101,2.002-9.001c11.381-34.099-1.009-75.102-25-88.997
		c3.133,8.496,17.497,18.945,18.001,36.999c0.497,17.875-10.514,40.377-31.002,34.998c-5.281-4.773-4.407-14.152,2.999-16
		c3.845,0.493,4.964,3.707,6.002,7.003c23.328-33.695-20.227-74.353-43.999-81.002c2.706,6.315,13.879,9.953,16,21.001
		c1.99,10.375-2.14,26.64-12.003,26.997c-6.608,0.244-11.849-5.285-6.999-11.999c5.794-1.791,4.598,3.405,9.001,3.003
		c-0.021-10.331-0.139-27.381-13-30.001c-1.534,7.365,11.568,8.309,8,21c-6.238,3.418-10.917,5.64-9.998,13.001
		c1.693,13.533,21.948,8.667,26.001,1.997c0.159,15.878-0.195,36.414-16.003,33c-3.976-4.272,4.26-2.389,2.999-6.998
		c-10.417-4.411-9.155,12.536-1.001,13c-3.467,11.189-9.009,18.571-16.997,19.999c-2.869,0.513-4.997-2.051-10.001-1.998
		c-6.026,0.062-11.674,4.383-16,4c-6.531-0.586-14.07-6.665-15.002-14.001c-2.006-15.882,18.026-26.408,24.003-8
		c15.198-34.497-10.747-78.142-47.001-80.001c-3.857-21.139-9.31-40.69-27.002-47.998c2.417,5.904,8.659,11.202,13.004,18.998
		c6.152,11.044,19.849,45.813-7.002,46.001c-1.135-2.197-3.341-3.32-4-6.002c0.382-4.614,3.833-6.169,6.999-8
		c0.554-16.883-6.722-25.939-17-31.999c0.398,9.701,14.689,14.616,13.004,27.002c-0.562,4.102-6.812,6.767-7.002,12
		c-0.265,7.238,4.415,9.92,11.999,11.999c-1.416,11.918-3.023,23.642-14.998,25c2.425,20.663-40.308,27.312-30.001,1.001
		c1.864-0.138,3.341-0.659,4-2.002c3.377,0.289,5.367,1.97,6.999,4c10.27-20.08,4.443-45.931-8-60.998
		c-6.848-8.297-14.616-20.187-25-19.003c13.696,10.312,28.251,27.319,28.003,51.001c-0.163,15.23-9.692,29.122-22.001,27.999
		c-10.079-0.915-13.562-12.569-5-17.997c6.266-1.599,6.624,2.71,10.001,4c-0.952-11.776,3.003-37.688-9-44.003
		c-0.195,8.867,8.732,21.48,4,35.002c-13.855-0.667-17.822,17.049-9,25c-7.981,8.785-29.226,17.261-42.999,8
		c0.415-2.25,5.483,0.15,4.999-2.999c-1.754-3.914-10.413-0.92-14-3.003c-21.482-10.124,7.2-45.825,15-18.998
		c0.136,5.037-5.066-1.469-5.001,2.999c11.904,9.293,24.135-8.606,26.001-19.999c2.488-15.194-2.688-33.313-12-39.002
		c-3.373,4.688,9.108,15.475,8,25c-0.563,4.838-4.155,11.454-12.002,9.001c-3.066-4.989,1.158-7.076,2.002-10.999
		c-0.578-9.09-5.46-13.875-10.001-19.002c1.149-11.703-5.184-23.987-16-26.998c3.042-6.624,7.791-11.544,18-11.003
		c2.185,1.444-1.807,4.411-0.999,10.002c1.374,9.501,10.832,13.029,20,10.002c24.855-8.216,4.014-57.69-27.999-42.001
		c17.169,3.153,39.264,5.97,35,27.999c-2.926,15.108-31.679,13.558-19-4c6.366-0.821-1.174,6.047,4,6.002
		c8.643-8.113-6.398-13.005-13-13c-10.459,0.004-16.97,8.626-19.999,13.997c-7.412-3.044-23.948-3.341-29,2.002
		c13.739,1.066,32.381-1.672,41,9.998c2.846,3.857,4.285,9.903,4,17c-4.798-8.207-12.932-18.393-25.999-14.998
		c1.969,5.326,8.093,2.93,12,5c8.193,4.346,12.825,13.461,10,25c-6.688-0.996-12.512,10.946-19,12
		c-10.744,1.745-17.439-8.635-8.999-17c5.654-1.323,4.966,3.698,8,5c5.386-4.134,1.602-12.728-2-15.002
		c-21.147-13.347-40.788,25.032-69,15.002c6.97,9.852,21.212,19.649,18,42.998c-1.077,7.828-7.444,21.256-20,18.001
		c-4.797-1.241-10.498-9.818-4-14.999c4.476-1.477,3.07,2.926,6.999,1.998c3.316-29.939-25.409-50.378-56-39.998
		c0.727,5.176,5.615,0.818,8,5.001c5.241,8.077,5.058,23.958-0.999,30.997c-6.096,2.527-18.39,8.439-17-5
		c3.375-3.256,3.573,2.307,8,1.001c3.3-30.534-34.295-33.948-54.999-22.998c-2.478-19.523-15.306-28.695-36-30.001
		c22.546-12.928,42.908,8.923,69,1.001c11.298-3.435,30.461-22.347,48-8c-18.119,1.904-12.374,26.803,8.999,21.997
		c7.385-1.66,11.599-8.988,12.001-15.999c0.901-15.715-13.218-27.877-30.001-30.001c-18.414-2.327-27.653,5.717-44.999,9.001
		c9.047,7.755,19.971-3.675,31-5.001c18.3-2.193,40.045,6.872,40,24.003c-0.049,17.293-29.608,18.771-21,0.997
		c5.182-1.18,4.167,3.837,6.999,5.001c6.716-10.344-5.043-17.514-10.999-18.999c-17.944-4.483-32.859,13.286-50,14.999
		c-14.001,1.399-28.538-7.694-41.001-8c-16.359-0.398-28.432,8.858-35,17.001c7.406,1.021,9.646-3.671,17-4
		c17.328-0.777,35.317,14.266,32,30.997c-1.144,5.767-6.771,11.649-17,10.002c-1.713-3.288-5.778-4.224-5-10.002
		c1.351-4.688,5.979-2.872,9-3.999c1.988-10.783-16.152-14.507-29-12.997c-24.396,2.86-47.564,29.684-51.001,46
		c6.525-2.344,7.772-10.587,12-16.003c12.815-16.406,35.301-33.854,62.002-21.997c-21.812,13.334,12.695,36.092,23,13
		c7.062,9.164,9.678,34.091-4,37.997c-4.592,0.419,2.478-10.254-3.001-10.999c-2.785,10.881-8.215,19.12-17.999,23.002
		c-32.119,11.548-34.523-42.143-9.001-30.001c3.296,3.508,0.452,5.396,0,9.998c12,0.184,3.715-16.271-5-17.997
		c-16.124-3.198-33.234,11.706-44,25C10.012,1151.714,3.487,1171.209,0,1183.912c0,22.001,0,44.002,0,66.004
		c0.666,1.937,1.774,4.658,2.555,7.373c1.357-0.013,2.716-0.017,4.075-0.029C-9.033,1201.637,10.12,1135.397,52,1117.912z
		 M749.999,1169.915c-0.749-8.102-2.718-18.95,4.004-22.002C760.22,1152.166,756.822,1169.101,749.999,1169.915z M682.001,1141.912
		c10.018-2.353,12.923-15.895,9.998-27.999c5.314,4.688,11.507,8.491,20.003,10.001c-12.776,6.372-13.204,31.73-6.999,46.001
		c-1.273,1.204-3.605-5.014-7.003-5.001c-4.39-0.058-5.359,3.308-9,4C679.076,1167.726,680.349,1151.522,682.001,1141.912z
		 M615.998,1084.913c32.182-4.847,49.784,13.55,57.002,36.999c-12.903,1.815-11.304,24.162,5.001,21
		c-2.637,12.175-1.481,28.268,9,30.001c6.116,1.014,6.938-4.085,12.997-2.998c3.377,7.246-3.979,10.429-8,10.998
		c-13.33,1.888-24.26-11.869-26.001-22.998c-8.757,25.858,45.215,30.347,37.003,62c-2.083,8.028-22.196,15.271-20.003-1.001
		c3.418-3.654,6.332,2.909,9.001,0c-1.18-23.022-29.281-21.191-42.998-37c-13.269-15.291-6.221-33.28-9-56.999
		C638.268,1110.116,630.882,1092.478,615.998,1084.913z M633.999,1159.913c4.436,11.568,8.366,23.633,18.001,30.001
		c-1.351,7.649-3.418,14.579-9,18.001c-3.435-2.519,3.349-10.47-2.002-12.004c-3.504,13.94-9.994,45.402-30.998,45.004
		c-9.928-0.191-22.372-17.347-4-20.003c4.773,1.892,2.617,6.237,4,10.001c17.473-6.494,19.597-40.552,12-60.002
		C626.089,1167.335,632.445,1166.024,633.999,1159.913z M619.001,1175.912c3.479,7.951,3.947,22.791,2.002,33
		C615.07,1198.703,612.637,1186.248,619.001,1175.912z M528.001,1158.912c1.917-5.306,7.096-6.242,9-8.997
		c7.308-10.6,3.674-23.466,2.999-40.002c-0.249-6.038,3.516-16.907-1.998-22.001c15.035,8.239,34.843,30.11,27.995,57.002
		c-21.924-9.492-22.16,25.843-1.998,25.001c2.348,5.952-0.33,14.807-6.999,14.998c-0.492,17.505-5.631,30.371-18.001,35.999
		c-2.507-4.725,6.775-10.934,2.999-16.997c-9.334,10.445-12.907,34.713-31.999,34.998c-11.837,0.179-23.669-17.839-4-21
		c5.009,3.634,1.733,6.303,2.999,11.002c15.674-8.638,21.004-22.477,21.004-42C530.003,1177.731,525.381,1166.167,528.001,1158.912z
		 M523,1168.914c5.188,17.866,1.257,42.105-8,51.998c-10.616-10.051-18.575-22.755-21-41
		C507.481,1183.313,518.813,1177.927,523,1168.914z M448,1080.913c-1.29,2.047-5.611,1.054-6.002,4
		C439.061,1082.553,443.984,1079.627,448,1080.913z M388.003,1081.914c1.636-2.222,4.569,11.121,4.997,17
		c0.529,7.223-1.107,15.141-1.001,21c-3.467,0.802-3.841-1.488-6.999-1C391.189,1110.169,392.511,1093.421,388.003,1081.914z
		 M360,1128.915c4.614,1.884,12.427,1.176,14.998-2.002c-0.35,3.577,0.366,12.333,3.003,15.999c-2.14,7.528-7.336,12-15.999,13.001
		c-7.813,10.526-14.567,22.103-34.001,21c2.706-5.627,11.212-5.452,12-13c-10.266,1.64-20.225,17.757-38,15.999
		c-16.565-1.636-21.69-29.325,0-21.997c-0.085,1.416-0.165,2.832,1.001,2.999c0.533,4.199-3.212,4.122-4.002,6.999
		c16.608,3.735,30.559-11.955,37.002-25.001C346.863,1141.11,354.148,1135.727,360,1128.915z M315,1063.913
		c1.876,1.123,2.124,3.878,4,5.001c-0.639,2.03-4.675,0.658-5.001,2.998C311.208,1070.017,314.185,1065.512,315,1063.913z
		 M273.999,1082.915c-3.938,4.724-8.246,9.086-10,15.999c-4.246-4.089-5.365-11.304-8.999-15.999
		c6.545-5.123,11.042-12.292,19.999-15.003C272.233,1070.358,270.083,1079.904,273.999,1082.915z M278.001,1061.915
		c-1.033-0.037-1.931,0.061-2.885,0.102c-9.827,2.531-22.496,25.069-28.117,12.898c8.868-4.806,15.006-12.337,28.117-12.898
		C276.109,1061.76,277.075,1061.703,278.001,1061.915z M227,1077.914c5.62-0.049,11.888,0.554,15-2.002
		c13.731,5.371,37.669,64.177,2.999,60.002c-2.556-4.301-2.883-12.862,5-12C251.829,1099.748,232.066,1091.851,227,1077.914z
		 M171.999,1082.915c5.668,0.028,14.639,0.858,21,2.999c-5.141,2.522-11.166,4.166-16,6.998
		C176.243,1088.669,173.23,1086.683,171.999,1082.915z M106,1096.912c7.005-6.714,20.835-9.477,34-6.998
		c-9.91,7.092-19.676,14.326-24.001,26.998C113,1109.913,112.437,1100.477,106,1096.912z"/>
	<path fill-rule="evenodd" clip-rule="evenodd" d="M588.097,1258.208c-0.854-0.008-1.707-0.017-2.562-0.021
		c1.137,0.285,2.289,0.533,3.465,0.725C588.707,1258.668,588.392,1258.448,588.097,1258.208z"/>
	<path fill-rule="evenodd" clip-rule="evenodd" d="M1122.002,1227.914c21.094,13.912,46.053,29.265,78.996,27.999
		c-6.853-5.721-16.398-4.187-23.999-5.997c-22.412-5.348-42.074-17.773-59.001-30.001c-1.074-4.928-4.313-7.69-4.997-13.001
		c29.989,38.07,91.436,44.686,148.755,55.428c5.84,0,11.683,0.009,17.521,0.009c-12.309-2.458-24.764-5.989-37.28-8.436
		c-42.351-8.276-73.486-12.211-102.995-31.001c-12.5-7.959-31.624-18.905-26.001-37c12.207,8.508,24.895,30.392,43.002,33
		c-4.069-7.292-13.037-9.953-19.003-14.999c-7.242-6.132-13.639-13.415-18.001-22.001c29.402-9.514,40.422,16.712,53.003,26.998
		c10.286,8.419,26.058,15.475,45.996,17c5.021,0.387,8.244-0.924,15.007,0c9.082,1.245,17.537,6.059,26.993,8
		c50.017,10.278,108.488-1.998,162.004-1.998c43.433,0,81.299,5.249,112.997,23.999c1.692-5.627-5.868-7.23-9.001-9.001
		c-72.404-40.836-196.98,2.413-278.996-21c36.775-5.843,78.532-3.283,119.995-6.998c28.882-2.588,57.666-7.91,84.001-6.999
		c55.119,1.904,98.641,22.136,137.004,43.998c1.001-5.578-6.625-7.991-10.002-10.001c-32.275-19.174-71.224-33.614-117-37
		c-54.265-4.012-108.131,13.118-164.999,9.001c54.72,0.797,108.838-13.998,162.004-13.998c56.909,0,104.68,13.058,141.992,37.997
		c0.008-1.664,0-3.333,0-4.997c-34.017-22.307-78.85-35.364-130.998-37c-54.329-1.704-103.482,12.439-154.997,12.997
		c52.279-13.615,110.108-43.99,172.999-44.999c42.171-0.676,81.893,12.87,112.996,27.998c0.008-1.664,0-3.332,0-4.996
		c-39.063-16.761-75.74-29.46-118.994-27.002c-82.048,4.667-158.163,53.976-235.002,57.999c-25.049,1.314-49.04-0.956-65.999-11.999
		c-14.958-9.737-23.535-31.734-45.004-34.001c-13.647-1.437-22.884,2.877-27.994,12c2.547,32.633,14.111,56.25,31.344,74.198
		c2.307,0.008,4.613,0.013,6.921,0.021C1131.857,1256.385,1127.552,1241.525,1122.002,1227.914z"/>
	<path fill-rule="evenodd" clip-rule="evenodd" d="M349.616,1256.775c-1.902-0.008-3.802-0.012-5.705-0.02
		c2.596,1.448,5.271,2.575,8.089,3.157C351.276,1258.811,350.472,1257.772,349.616,1256.775z"/>
	<path fill-rule="evenodd" clip-rule="evenodd" d="M0,566c32.599,27.637,95.005,40.24,152,31
		c21.146-35.187,33.388-79.279,69.999-98.999c1.178-10.824,11.314-12.687,19-17c21.643-39.422,47.416-81.838,83-106
		c12.742-8.651,28.644-9.493,44-19c33.085-20.481,57.068-87.911,105.998-68c23.649-21.372,78.182-52.219,117-29
		c17.839-8.065,46.509-12.109,68.001-2c5.672,2.665,8.993,9.149,13,12c1.632,1.16,4.801,0.59,7.003,2
		c13.025,8.354,20.483,20.392,14.999,37c12.313,0.421,21.004,9.572,27.999,12c25.655-19.391,82.798-17.934,89,19
		c10.693,3.418,14.95,15.039,22.005,23c7.617,8.612,13.559,12.351,8.993,28c7.649,10.232,12.224,15.77,14.005,27
		c1.091,6.865-2.221,13.621-1,22c4.866,33.559,58.276,13.727,67,41.001c2.873,8.991,2.62,28.023-15.999,25
		c-8.676-4.459-3.769-15.1-2.002-20.001c-4.599-1.925-14.022-0.254-17.001-0.999c9.994,8.219,24.333,29.069,18.002,46.999
		c-4.452,12.604-26.579,15.084-27.002-0.999c-0.188-7.377,6.673-9.253,6.998-14.001c0.806-11.727-12.598-16.592-18.994-20
		c5.916,6.887,10.457,15.885,9.994,27c-0.146,3.611-4.338,9.513-5.998,17c-1.277,5.764,0.162,9.902-1.001,13
		c-8.798,23.488-54.102,18.845-44.995-6.002c2.678-7.31,11.336-6.258,17.993-8c-0.879-7.782-2.353-14.978-5.998-20
		c1.311,12.136-5.037,22.105-14.998,23c-7.454,0.669-10.368-3.687-14.999-6c-10.496,8.641-15.606,23.847-36,21.999
		c-11.206-1.013-22.424-15.603-13-23.999c4.622-4.12,12.537,1.302,17.997-2c7.263-4.393,6.885-15.23,10.001-29
		c-1.09-2.745-8.024,5.058-12,6c-5.058,2.738-10.254,6.313-15.999,6c-6.567-0.358-18.408-7.278-21-13
		c-2.449-5.408-0.431-9.31-1.001-14c-13.761-2.183-26.399-0.853-35.999,2.999c-22.546,9.05-46.5,32.862-62,57.001
		c-15.95,24.835-23.405,60.976-15.999,97c3.06,14.896,10.059,29.077,14.998,44.002c4.916,14.86,9.554,29.862,16,43.998
		c8.74,19.174,32.511,61.313,55.001,64.002c11.25,1.343,21.497-4.391,31.001-3.003c9.343,1.367,16.362,9.737,25,11.002
		c8.171,1.196,17.647-3.385,26.998-2.002c12.233,1.815,14.374,12.077,25.002,15.003c19.067,5.249,40.56-4.041,53.996-12
		c30.07-17.81,45.41-43.046,69.002-68.001c9.619-10.177,22.803-30.2,34.001-35.002c30.933-13.265,36.304,13.525,48.999,31.002
		c19.979,27.507,31.16,42.595,60.002,59.998c10.799,6.522,26.001,16.715,42,15.002c9.375-1.005,24.886-11.202,35.994-17
		c36.435-19.011,70.72-37.952,98.007-60.999c78.557-66.357,149.194-133.199,219.995-204.001c35.286-35.285,72.868-70.75,122.005-90
		c0.334,0,0.668,0,0.993,0c0,1.666,0.008,3.334,0,5c-54.875,18.311-106.543,74.544-143.994,112
		c-42.92,42.918-88.606,83.186-131.006,122.002c-21.477,19.665-42.708,40.62-65.999,59.997
		c-22.673,18.876-49.561,33.907-76.994,49.003C1154.668,800.041,1127.82,812.545,1095,824c-28.63,9.989-61.223,29.333-95.003,32.002
		c-13.949,1.1-28.735,1.091-41.992,2.999c23.73,3.223,45.67,6.405,69.995,5.998c14.185-0.236,23.413-9.737,35.001-10.999
		c8.48-0.923,20.427,7.089,28.003,5.001c8.984-2.478,9.563-20.431,22.998-15.999c-0.235-5.432-13.069,1.733-12.003-5.001
		c16.146-4.728,27.954,6.327,25,21c3.442,0.436,5.606-0.395,7.999-1.001c5.144-7.096-1.05-21.594,5.005-29
		c-3.442,0.777-4.776-0.557-4.004-3.999c13.525-2.869,12.167,10.352,22.998,9c6.845-0.854,7.609-12.442,17.001-14.001
		c7.381-1.221,12.32,0.565,18.001,8c-0.432,3.768-4.158,4.235-2.002,7.999c13.501,4.578,11.198-11.702,7.007-17.997
		c-3.687-5.538-9.578-4.716-11.003-9.001c13.696-6.021,38.347-10.88,48.999,0c6.315,6.45,4.566,17.595,16,14.999
		c3.678-2.689,0.211-7.08,2.002-10.999c1.578-3.463,4.801-2.722,4.996-6.999c0.391-8.553-7.096-8.923-12.996-15.002
		c13.574-5.721,40.805-4.98,42,10.998c-4.435,2.715-3.475-4.35-6.998,0c-0.651,4.321,1.725,5.607,2.994,8.004
		c14.006,1.799,12.704-9.159,13.005-19.002c-3.906-6.344-10.196-10.71-19.002-12c-3.378-0.496-9.058,3.365-10.002-1.997
		c15.227-4.146,45.663-9.147,48.999,8.996c-1.799,2.445-7.219-2.697-6.998,3.003c0.121,3.878,2.945,5.05,5.004,6.999
		c10.637-0.781,11.068-9.688,10.995-18.998c-5.354-11.235-18.229-18.291-34.001-18.002c-4.891,0.09-11.067,3.666-14.998,0
		c4.907-5.762,19.287-2.042,26.001-6.002c1.091-14.355,15.853-14.106,29.004-13.997c2.823-14.307,7.503-22.844,22.998-23.002
		c15.576-0.159,34.896,10.673,29.997,25c-3.638,0.973-0.464-4.871-4.997-2.999c-13.989,10.905,11.108,23.193,17,9.998
		c2.368-11.483,0.269-20.154-6.006-25.997c-3.768-3.52-11.067-2.958-11.995-9.001c9.277-1.168,16.569,8.016,20.996,14.998
		c11.775,6.563,33.781,2.894,34.001,21.001c-2.954,2.181-7.854-2.043-8,3.999c1.229,10.425,13.826,5.095,15.999,1.001
		c12.175-22.929-24.503-27.331-21.997-38c7.593,4.74,15.666,8.996,22.998,14.001c0.537-23.596-25.203-17.896-37.996-32.999
		c-24.048-28.398,20.149-65.733,42-33c-0.35,2.779-5.265,3.617-2.002,6.999c1.318,2.881,6.34,2.055,9.001,1.001
		c7.072-11.694-3.557-20.427-8-27.002c20.736,2.262,41.374,4.622,45.996,23.002c-12.532,8.598,2.783,23.071,12.004,13.997
		c9.163-9.021-1.555-27.682-8-34.997c10.417,0.244,9.961,11.368,16,15.999c2.921-14.119-1.147-23.901-8-30.001
		c-5.11-4.545-12.639-3.998-17-9c17.195,1.536,37.923,10.801,45.003,26c-2.303,2.104-4.606-1.505-6.006,1.998
		c-1.318,9.998,7.121,10.918,12.004,10.002c10.896-2.039,7.088-18.831,11.995-25c-3.581-8.749-3.557-21.108-11.995-25
		c-6.421,4.169-16.691,3.668-18.002-4.999c-0.342-4.346,2.417-5.583,3.003-9c-8.569-9.786-34.171-6.83-46.004-5.001
		c4.443-7.395,20.337-7.466,30.998-6c10.335,1.422,20.32,7.322,21.004,15c-1.717,1.62-5.737,0.93-5.005,5
		c8.813,8.667,13.452-2.893,11.003-10.001c-3.524-10.238-17.05-12.469-23.999-17.999c5.859-3.524,11.092,2.673,18.001,4
		c14.543,2.793,32.854,0.061,35.002,16c-1.164,1.839-5.307,0.694-4.004,5.001c13.932,14.225,20.931-6.7,13.004-18
		c-3.516-5.003-10.872-4.832-11.002-11c7.91-1.725,11.963,10.451,14.998,7c-2.637-16.494-9.253-26.167-25-28.001
		c-3.63-0.423-9.326,3.939-11.003-2c9.294-6.01,24.032,1.735,29.004,3c-1.277-12.374-20.32-8.938-27.002-13
		c5.363-6.338,20.932,2.254,22.998-1.001c-2.913-10.26-27.393-1.567-34.993-2c6.982-9.463,36.45-10.224,42,1.001
		c-1.188,2.152-4.272,2.396-3.003,6.999c9.115,9.458,21.265,0.45,19.003-12c-0.937-5.146-9.611-8.016-6.006-15
		c-3.052-8.578-16.049-8.048-22.998-10c8.838-11.161,21.346-18.652,38.997-21c0,1.334,0,2.667,0,4
		c-8.903,1.424-17.432,3.233-21.997,9.001c7.837,2.496,13.322,7.349,21.997,9c0,1.333,0,2.665,0,4
		c-12.183,0.651-21.33-14.783-29.997-8c20.093-1.76,12.671,23.999,29.997,25c0,1.667,0.008,3.333,0,4.999
		c-1.863-0.798-3.662-1.67-5.998-2c0.407,13.407-5.232,20.762-19.002,20.001c-0.505,14.175,13.127,14.209,25,16c0,1.333,0,2.667,0,4
		c-9.538,1.526-16.447-4.865-21.997-4c3.247,0.753,2.385,5.615,4.004,8c4.866,2.461,10.197,4.47,17.993,4c0,1.335,0,2.667,0,4
		c-8.113,0.785-12.321-2.344-18.994-2.999c1.685,13.342,1.953,31.075-15.999,29.999c10.774,3.225,20.703,7.292,34.993,7
		c0,1.333,0,2.667,0,4c-27.181,1.166-44.287-13.017-59.993-19.999c2.954,7.377,10.75,9.916,11.995,18.998
		c12.378,8.289,26.579,14.758,47.998,14.001c0,1.335,0,2.665,0,4c-20.589,1.925-35.393-7.271-46.997-11.001
		c6.535,8.511-3.816,12.75-1.001,20.002c2.075,5.326,15.389,9.932,25,10.998c7.471,0.83,16.602-3.039,21.004,2.002
		c-16.104,5.685-36.466-0.565-47.005-6.999c-1.375,2.616-4.558,3.438-4.997,6.999c15.227,4.846,38.908,10.962,53.996,1.998
		c0,2.002,0,4,0,6.002c-58.032,50.488-132.715,89.962-211.995,125.997c-58.806,26.729-122.372,46.354-192.001,62.003
		c-23.812,5.352-47.949,12.61-71.004,13.998c-37.655,2.266-70.004-4.272-108-5.998c-41.936-1.908-68.953-7.365-106.999-10.002
		c-42.261-2.93-66.373-14.709-93.001-31.998C810.812,821.981,801.168,810.621,793,808c-12.915-4.146-27.832,3.194-38.998-1.001
		c-6.763-2.539-10.429-8.068-18.001-9c-18.628-2.283-26.725,5.439-39.998,3.999c-32.243-3.495-44.735-28.735-63.005-45.996
		c-8.943-8.459-18.742-4.793-33-9c-9.53-2.816-14.022-10.079-23.999-11.003c-33.667-3.108-46.786,23.987-63.998,42
		c-16.032,16.781-38.2,25.753-46.004,48.003c-14.9,16.825-32.845,15.763-58.997,19.999c-33.012,5.347-46.265,35.44-80.001,38
		c-11.153,0.847-21.148-1.876-31,1.001c-13.933,4.065-20.561,16.667-40,12.997c-7.786-1.465-14.101-9.55-21-12
		c-20.317-7.214-43.317,6.616-64,4c-17.456-2.205-34.216-13.937-45-23.999c-12.164-11.345-20.329-24.931-25-43.998
		c-2.441,0.736-11.279,8.492-19,4c1.052,10.034,10.762,16.451,10.999,23.999c-10.759-6.571-16.073-18.596-16-35.999
		c1.444-2.312,9.879-7.576,11-1.001c-1.18,3.955-7.145-1.335-7,5.001c12.506,18.14,27.309-16.199,10-21
		c-4.73,0.573-7.792-0.818-10.999,0C72.5,798.914,71.842,807.78,66,810.999c-3.203-24.87,13.725-44.124,36-46.997
		c8.456-1.095,29.934-2.486,21.999,9.998c-4.362,0.695,0.234-7.564-4.999-5.998c-5.21,0.72-6.637,3.32-7.001,6.999
		C110.034,794.874,141.266,786.296,144,774c5.955-26.787-31.895-46.611-56-26.998c4.93,23.775-42.094,30.163-35,2.999
		C44.545,752.882,39.469,759.136,35,766c-2.393,2.608,1.416,11.413-4,11.003c-8.688-15.527,29.506-46.871,37-26.001
		c-4.973,0.605-5.627-3.703-10-1.001c-4.645,7.894,0.71,12.891,4,14.001c20.215,6.815,29.612-28.557,18.001-39.001
		c-18.504-16.646-53.729,7.715-62.001,21c-2.993,4.81-1.632,11.507-8,13c3.325-21.7,21.57-37.081,46-40.999
		c1.674-3.328,4.585-5.416,6-9.001c4.393-3.121,11.286-7.552,19-10.001c6.545-2.075,17.704-6.849,22.001,1.001
		c-15.568-0.684-36.644,5.627-40,17c5.294,1.208,9.497-4.915,16-8c14.386-6.827,43.913-7.646,41,10.999
		c-3.768-0.362-5.756-6.267-10-2.999c-16.514,18.884,26.809,27.629,23,1.998c5.31,0.643,6.821-2.511,9-4.997
		c1.369-16.658-12.05-25.391-25-26.001c-4.11-0.195-7.707,3.483-11,0c3.816-6.982,20.219-3.801,25,0
		c6.763-10.665,33.819-20.26,48-10.999c2.543,1.66,10.842,11.174,3.001,16c-2.124-1.88-0.022-7.979-3.001-9.001
		c-8.097-0.569-11.086,3.231-12,6.999c-7.351,30.306,55.892,20.08,36-9.001C214.738,663.741,196.22,650.664,177,650
		c23.647-3.267,25.269-45.08,53.001-42c7.487,0.832,18.587,10.179,10.999,18.001c-1.243-3.874-4.689-11.603-12-6.002
		c-3.198,23.243,25.333,13.664,31,5.001c14.75-22.555-18.64-41.722-39-33c0.761-16.01,18.215-25.645,33-21
		c-10.205,4.46-24.89,4.443-27.999,16c7.872-1.207,14.048-0.849,20.999,1.001c27.531-9.141,49.282,11.529,47.001,42
		c-5.392,4.252,2.206,15.987-7.001,17c-2.244-2.804,3.733-7.129-0.999-10.002c-4.73-0.729-6.574,1.426-9.001,3.003
		c-2.337,11.849,7.292,16.472,16,13.997c21.041-5.981,21.204-51.926,5.001-67c-3.459-3.219-7.18-1.862-9.001-6.999
		c29.692,1.243,32.084,62.142,10,77.001c4.741,18.364-3.389,39.49-23.999,38.998c-0.492-2.841-5.227-1.44-4-6.002
		c2.13-2.019,8.254,2.116,8-4c-1.477-8.37-12.687-8.04-15,0c-4.061,14.124,12.648,18.771,15,19.002
		c13.542,1.331,31.201-13.24,34.001-30.001c0.671-4.027-1.604-7.861-1.001-10.998c2.923-15.202,24.737-8.806,18.001,0.997
		c-4.128-0.204-1.164-7.503-7-5.998c-13.281,4.745-6.173,19.987,6,18.998c7.202-0.586,9.127-8.878,17-7.999
		c8.071-7.658,8.148-22.567,7-37c-4.482-0.4-9.686,5.57-17,3.001c-14.246-5.001,0.663-30.275,8-13
		c-4.594-1.426-6.984-2.873-10,0.999c3.741,15.662,17.495,5.841,17.999-4.999c0.46-9.935-6.854-21.806-15-26.001
		c-4.788-2.466-9.489,0.024-12-4.999c8.661-5.434,12.488,4.948,23,4.999c13.651,0.067,38.334-24.992,42.997,2
		c-1.831,1.498-2.49,4.175-4.997,5.001c-1.978-2.024-1.461-6.541-6.999-5.001C370.99,611.988,388.104,609.524,402,604
		c3.577-1.422,11.442-14.398,12-17c1.969-9.184-1.437-16.307-8-23c-3.194-2.141-10.616-0.051-9.998-6
		c10.962,0.037,16.972,5.025,19.995,13c15.389,1.715,28.874,18.713,21.004,34.001c-3.687-1.595-3.931-5.09-9.001-3.001
		c-5.656,9.794,0.354,19.854,10.999,17.999c4.854-0.844,3.394-4.287,8-8c3.544-2.854,7.304-2.195,9-4.999
		c7.475-12.349,0.256-34.318-10.999-43.001c-4.598-3.544-9.579-2.214-12.003-8c9.933-2.144,15.389,8.529,23.002,12
		c18.315-3.035,38.863,18.921,22.001,29c-2.161-2.024,2.657-7.977-4.004-6.999c-4.903-0.542-2.718,6.608-1.998,8.999
		c7.279,5.343,16.378-0.499,18.998-6c2.637-25.632-17.582-28.416-30.998-37.999c15.808-1.092,25.033,12.934,39.999,16
		c-1.213-8.988,6.966-12.427,12.003-12c-3.857-6.813-15.568-5.77-21.004-11C505.744,542.985,526.105,559.915,514,572
		c-1.571-2.578,1.672-7.809-2.999-8.999c-15.226,4.854-3.064,17.865,4.997,17.999c18.596,0.31,19.116-33.895-1.998-34
		c-2.755-18.911-18.506-24.827-41-23.999c-3.227,0.71-10.046,5.288-12,0.999c13.354-2.828,25.22-21.397,41-12
		c0.264,4.264-6.177,1.827-4,8c0.321,2.348,3.097,2.24,4,4c17.863-1.725,10.066-25.263-2.002-27.999c-26.457-6-37.98,20.587-66,16
		c-19.438-3.182-43.425-35.876-18.998-52.999c5.318-3.727,31.229-12.248,31.001,12c-5.302,1.965-0.7-5.967-6.001-4
		c-10.352,5.249-1.185,15.692,6.001,16c11.857,0.509,13.77-14.223,22.998-16c2.901-7.825,3.841-17.806-2.002-23
		c-6.868,3.978-15.552-0.743-17-8c-1.855-4.431,5.261-8.612,1.001-9.001c-12.085-1.42-15.023,6.307-20.997,11.001
		c-5.326-14.756,33.891-23.452,34.998-5.001c-4.236,0.38-5.473-5.798-9.998-2c-2.727,3.02,0.691,5.959,0.997,9.001
		c12.651,5.493,19.271-7.819,15.002-19c-1.798-4.698-9.383-9.892-15.002-11c-25.427-5.015-42.48,15.062-51.998,28.001
		c-17.732-0.065-25.211,10.122-30.005,23c21.81-2.321,30.192,33.012,11.003,40c20.215,6.999,10.034,48.181-13,37
		c6.555,8.343,2.307,25.279-8.997,25c-4.488,25.175-48.041,5.147-27.002-14.001c1.621-1.501,7.379-1.501,8.999,0
		c-18.105-15.017-37.474,15.989-56,21c-5.186,1.404-17.015,5.129-19.999-0.999c32.772,3.904,44.061-31.557,69-29
		c6.856,0.702,15.842,7.48,10,15.999c-4.116-0.218-2.79-5.875-9.001-4c-9.717,7.259-0.368,18.292,6,19
		c12.429,1.381,16.526-17.083,25.002-16c5.44-21.352-14.811-29.199-30.001-30c1.302-19.421,49.467-25.903,42.998,2
		c-4.021-0.647-2.38-6.952-9.001-5.001c-4.215,3.514-1.249,10.999,2.002,13c14.934,2.893,18.539-13.773,14.999-23
		c-3.918-10.228-20.699-14.893-34.998-13c-13.798,1.827-18.846,10.884-29,12.001c1.156-6.179,7.559-7.108,12-10
		c0.59-18.429,38.241-39.531,46-14.001c-4.277,2.871-6.319-6.567-11.003-0.999c-2.287,5.487,1.188,10.042,5.005,10.999
		c16.101,4.042,13.753-21.112,8-27c-4.346-4.439-12.297-5.774-17-6c-20.907-0.999-32.87,15.399-44,23
		c5.501-14.195,21.644-26.333,44-27c3.275-8.722,7.072-16.925,14.999-21c8.838-27.006,36.06-49.488,66-48
		c-27.376,7.959-50.603,20.066-60.999,45.001c4.155-0.844,7.422-2.578,13-2c8.081-11.127,18.075-25.881,37.997-28.001
		c18.75-1.994,45.695-12.066,53.003,9.001c-4.875,2.883-5.721-6.287-11.002-3.001c-2.344,1.654-2.165,5.835-1.998,10
		c4.863,3.365,9.167,5.851,15.002,4.002c3.841-1.221,3.475-6.86,6.999-9.001c3.76-2.285,5.847,2.016,8-2
		c4.517-13.206-6.47-23.906-14.999-26.001c-2.661-0.653-9.253,2.849-10.001-2.999c1.066-2.271,6.283-0.38,9-1.001
		c6.12-9.218,35.791-13.588,35.999,4c-5.049,0.053-5.383-6.519-10.999-2.999c-1.953,2.246-0.871,7.521,0,10
		c2.962,1.701,6.787,2.543,12,2C548.367,384.013,533.535,362.875,514,364c-6.563,0.378-9.485,5.176-16,4
		c13.473-17.716,37.345,0.143,54,3.001c-0.765-6.765,3.06-8.939,5.998-12c-6.893-4.684-18.278,1.693-22.998-2
		c8.439-7.324,31.62-4.864,30.998,8.999c-3.743,0.397-5.586-4.116-8.997-0.999c-3.194,18.327,18.01,14.004,18.999,0.999
		c1.188-15.633-15.088-22.42-29.997-21.999c-4.313,0.122-9.058,4.096-13.004,0c5.798-4.616,18.021-7,29.004-7
		c9.717,0,23.291,1.324,26.998,8c-6.246,1.09-17.949-5.931-26.998-2c9.033,1.632,13.672,7.66,17,15
		c22.949,4.049,36.576,17.423,39.999,41c2.197,1.737,8.211,7.125,2.999,10.001c-11.304-21.68-25.793,18.404-0.997,14
		c6.404-1.137,6.359-6.398,12.996-11c0.863-0.962,2.792-3.158,3.003-4c3.084-12.478-5.261-25.856-6.999-31.999
		C645.702,383.765,658.226,409.876,648,431c-4.488-1.556-8.097-3.064-10.999,1.001c4.183,20.494,32.772,2.873,30.998-13
		c-15.096-3.09-14.494-23.065-1.001-23c0.928-4.862-4.858-10.474,0-13c4.451,3.054,5.005,14.767,3.003,21
		c-4.472,0.271-3.841-4.551-8-2c-4.305,5.569,1.086,13.572,10.999,11.001c12.639-9.271,6.042-38.652-2.999-47.001
		c4.988,24.343-34.392,22.483-28.003,2c1.595-5.111,8.378-5.294,12.003-6.999c-0.236-8.098-7.015-9.654-9-16.001
		c8.659-1.046,15.519,12.938,11.999,24.001c-3.292,2.387-4.866-5.959-10.001-2c-5.586,17.438,16.418,14.418,18.999,4.999
		c7.194-26.231-18.929-43.158-35.995-45.999c-3.646-0.606-10.217,2.702-12.003-3c2.168-3.579,9.733-1.117,14.998,0
		c3.101-1.14-3.031-4.159-1.998-9.001c0.802-3.76,2.816-6.001,8-6c-4.761-14.903-30.559-6.7-40.002-4.999
		c8.72-14.476,53.336-9.609,43.001,12c-2.775-0.344-3.618-5.263-6.999-2c1.453,15.385,18.49,6.622,20.003,0
		c1.77-7.786-3.817-17.387-9-22.001c-8.822-7.849-21.444-6.934-31.002-8.999c10.807-9.371,33.834-8.057,44.999,0.999
		c4.98,4.041,14.315,15.503,11.003,20.001c-3.752-0.586-1.815-6.854-7.003-6.001c-13.086,12.18,2.584,21.704,13,20.001
		c24.406-3.99,14.429-45.215-8-45.001c-11.52-20.74-54.167-19.184-77.002-10c3.532,11.381-12.101,17.969-14.998,8
		c3.047-2.486,7.214,3.646,10.001-0.999c4.614-8.822-8.732-13.098-17-14c-42.977-4.688-75.232,24.109-98.999,39
		c-4.036-7.931-16.377-6.834-25-4c-33.333,10.952-49.915,56.089-79.004,71c-15.67,8.034-30.573,10.01-43,19
		c-35.457,25.653-60.211,67.605-81,106.999c-11.497-0.499-15.865,6.134-18,15c-15.051,3.985-23.039,16.274-31,28
		c-18.19,26.789-28.994,60.563-48,85c-11.924,15.332-30.721,29.218-49.001,38.999C72.548,667.086,39.327,679.004,0,674
		c0-1.665,0-3.333,0-5.001c32.841,5.599,66.817-2.531,87-16C60.905,641.362,25.055,667.688,0,649c0-1.331,0-2.666,0-4
		c26.876,19.291,65.414-10.676,92,6.002c9.953-4.717,19.01-10.323,27-17.001C96.964,640.32,81.413,619.696,58,620
		c-18.564,0.242-41.953,14.36-58-0.999c0-1.667,0-3.335,0-5.001c16.256,17.011,37.323,1.845,60,2
		c25.124,0.171,44.389,25.598,68.001,10.001C101.778,635.019,87.362,610.297,60,610c-24.8-0.269-47.489,6.407-60-11c0-2,0-4,0-6
		c10.335,19.314,34.293,12.25,61,13c23.464,0.662,35.895,18.457,56,18c16.146-0.366,26.327-11.145,31.999-21.999
		C89.921,608.708,32.389,597.549,0,571C0,569.334,0,567.668,0,566z M657.001,298c-0.142-3.144,2.563-3.437,5.001-4
		c-3.174-9.833-15.894-15.434-28.003-13C645.897,282.438,650.633,291.036,657.001,298z M794.001,365
		c7.802-5.721,13.353-10.943,13.002-23c-1.017-34.387-61.806-38.529-84.002-17c6.799,6.342,5.782,21.466-1.001,27
		c5.636,5.573,8.598,21.006,2.999,29c5.347,16.331,26.501,38.163,21.004,62c-0.24,1.036-0.484,5.029-4.004,5.001
		c-2.563-2.143,0.838-5.587-1.001-7.001c-17.725,2.249-7.507,19.651,5.005,18.001c2.474-0.328,4.997-4.346,9-6
		c13.297-5.5,15.121-15.295,11.996-32.001c-14.812,1.965-18.274-18.339-6.999-23c-4.39-12.276-11.051-22.284-19.999-30.001
		c-2.954-1.713-8.598-0.736-8-6c20.87,4.152,30.603,24.705,33,44c-3.104,0.104-2.853-3.146-7.003-2
		c-2.433,20.138,21.045,13.906,19.002-4c-0.57-4.993-5.753-7.402-4-13c12.944,5.806,21.725,26.16,16,44
		c-3.031,0.106-2.808-5.206-6.002-2c-6.925,8.358,4.281,14.299,10.002,11.001c12.913-7.442,0.513-35.281,2.002-42
		c6.598,4.734,7.477,15.189,7.997,25.999c6.763,9.82,17.351,35.913,5.998,48c-2.141-2.991,1.644-6.738-3.996-6.999
		c-9.291,6.057-4.142,16.809,4.997,17c6.502,0.134,11.703-7.784,18.002-7c4.305-6.028,5.77-14.895,5.004-26.001
		c-6.771-1.007-11.417-7.978-8.008-16c1.848-3.605,8.822-1.153,9.001-4c1.831-8.278-6.876-15.155-1.993-19.999
		c5.306,5.369,7.723,18.931,4.996,29c-4.361,1.011-3.345-6.362-6.998-3.001c-2.865,0.14-1.832,4.171-2.002,7
		c8.829,7.798,17.952-1.973,18.001-12c4.524-1.861,1.741,3.593,3.995,4c6.56-14.689-2.059-31.818-10.994-40
		c-6.47,13.039-27.979,5.88-27.002-7c0.374-4.946,4.354-3.872,4.997-10c-1.343-6.323-7.983-7.344-9.994-13
		c10.783-1.031,14.112,13.823,19.995,21c-4.435,2.832-2.474-3.327-7.999-2c-6.665,7.692,2.767,14.4,9.001,14
		c11.507-0.739,14.542-20.296,6.998-29c-2.629-3.038-4.565-1.589-9-6c-1.367-9.631-8.146-13.851-14.999-18
		c-2.287,14.144-6.315,22.956-16.998,25c-30.074,5.756-26.461-36.457-4-25c-0.15-9.515-11.194-8.142-15.002-14
		c11.67-3.854,24.013,10.508,17,21.999C777.538,331.488,766.747,372.221,794.001,365z M720.002,348
		c14.49-22.009-23.73-47.313-39.001-28.001c12.142,2.193,22.278,6.39,27.999,15c-1.782,2.217-3.938,4.063-2.999,9
		C708.039,347.986,714.37,350.655,720.002,348z M656,320c3.296-1.772,4.997,1.066,7.003-2c-3.141,0.474-2.645-2.692-5.005-2.999
		C658.153,317.489,656.428,318.095,656,320z M644.001,326.001c20.516,6.484,24.007,29.991,35.001,45.999
		c17.94,7.743,30.933,25.71,29.997,49.001c-4.191,0.191-3.092-4.909-8-4c-11.198,8.562,3.556,18.875,13,13
		c8.02-4.988,3.792-15.472,7.003-21c3.41-0.077,2.958,3.705,2.999,6.999c12.041-6.246,2.942-26.772-2.999-33
		c-10.686,11.879-29.94-12.087-11.003-15c-3.646-10.264-10.539-19.462-19.999-23.999c-2.616-1.255-7.87,1.31-8-4
		c17.313-0.287,32.857,15.104,31.001,33.999c-3.809,1.05-3.072-4.022-6.001-0.999c-4.651,7.424,7.153,9.942,13,7
		c7.137-6.352,3.279-21.568-2.002-27c-12.573,2.389-19.682-9.607-13.998-19C691.738,323.171,664.073,320.254,644.001,326.001z
		 M586.001,372c3.857-0.141,4.623-3.377,9-2.999c-2.4-4.932-9.44-5.227-14.998-7C580.858,366.476,585.448,367.218,586.001,372z
		 M565.001,382.001c2.201,6.107,10.388,15.845,5,23c-4.728-15.279-12.398-32.935-30-32c1.794,2.871,3.19,6.142,2.999,11
		c10.348,3.99,16.463,17.531,13,31.999c-3.983,0.861-2.706-6.172-6.001-2.999c-8.504,1.157-4.46,13.651,0,15.999
		c14.933,2.56,20.467-8.352,21.004-17c3.638,0.309,6.506-0.159,9.001-0.999c7.45-10.72,10.201-33.299-1.001-42
		C577.688,376.689,573.395,381.395,565.001,382.001z M589,375c0.452,4.878,1.448,9.218,2.999,13c4.118-3.552,9.322-6.014,15.002-8
		C604.413,370.769,596.771,370.26,589,375z M682.001,382.001c1.758-0.576,5.872,1.208,6.001-1.001c-3.296,0.883-4.997-4.897-7.002-2
		C682.168,379.169,682.087,380.581,682.001,382.001z M499.999,387c5.09,0.911,7.861,4.142,11.002,7c1.847-5.483,5.363-9.3,9-13
		C510.989,380.654,503.368,381.702,499.999,387z M523,545c11.161,3.748,14.323,24.422,7.003,35.002
		c7.739,10.071,1.831,23.053,1.998,33.999c0.151,9.886,4.863,22.546,8,33.002c9.712,32.34,24.516,62.598,40.002,85.998
		c5.485-0.46,10.042,5.249,12.996,4c-10.945-16.724-24.259-36.401-27.999-56.999c5.701,2.141,6.205,10.278,8.997,16
		c2.681,5.48,5.949,11.169,9,17c6.954,13.261,14.99,34.437,32.003,30.001C586.888,699.846,570.128,647.49,568,584.001
		c-2.437-72.756,25.749-122.253,64.001-154c8.594-7.135,24.756-13.904,12-27C636.758,413.758,633.348,428.345,614,427
		c-11.389,10.37-22.97,24.18-31.002,37c-2.299,3.678-3.996,12.178-9.998,11c8.504-20.496,22.567-35.433,37-50
		c-5.159-1.855-9.151-10.161-5.998-17c-0.138-4.417-4.057,1.861-5.005,3.001C562.572,439.276,537.01,494.19,540.001,560
		c1.306,28.809,7.735,56.004,14.001,78.001c2.1,7.386,6.001,15.601,3.996,22.998C545.88,633.037,537.596,598.32,536.001,562
		c-3.678-83.618,31.657-136.961,77.999-169c-1.514-3.485-1.827-8.172-5.001-10c-5.953,3.379-12.492,6.17-18.001,10
		c-3.572,9.755-3.41,23.254-17,23c0.105,10.439-7.072,13.593-13.998,17c-3.333,0-6.665,0-10.001,0
		C531.635,460.417,523.131,502.641,523,545z M682.998,386.001c1.62,3.713,0.834,9.834,1.001,15c5.005-1.996,11.727-2.275,16-5.001
		C694.978,390.373,694.758,382.941,682.998,386.001z M546.002,392c-8.875,7.814-14.982,17.568-21.004,27.999
		c-6.161,10.675-10.303,21.897-17,32.001c1.237-19.126,13.77-35.545,23.002-50c-9.875,1.876-12.39-3.613-17-7
		c-0.403,4.977,4.675,16.146,0,23c-6.734,2.6-10.616,8.051-17,11c-4.26,9.406-4.228,23.104-10.999,30.001
		c-1.917-9.703,4.765-19.149,5.998-29c-7.194,1.192-9.444-2.553-13.997-4c-11.247,13.047,6.258,40.47-13,47.998
		c-0.899,10.488-2.633,19.438-2.999,28.001c5.534-2.466,9.196-6.804,16-8c2.327-6.006,0.041-16.626,4.997-20.001
		c4.63,3.479-1.217,11.509,0,18.001c6.38,0.153,8.496-1.334,14.001,0c0.924-4.409-0.891-11.558,5.001-11
		c0.785,5.119-1.4,7.265-1.001,12c16.78,0.281,21.745,28.534,6.999,35.002c6.657,1.69,7.357,14.626,12.003,14.998
		c-2.677-38.525,8.138-85.455,26.998-112c-4.211-1.786-5.566-6.433-6.999-11c-5.013,9.153-11.829,18.156-16.003,29
		c-4.272,11.112-4.659,23.885-9.998,35.001c-2.006-35.073,20.41-62.875,37-86C549.445,395.893,549.209,392.457,546.002,392z
		 M640.998,400c5.265,0.004,1.75-4.686,0-6C640.998,396,640.998,398,640.998,400z M682.998,405.001c1.44,10.114-13.948,8.7-9.998,18
		c8.236-6.098,18.307-10.36,31.002-12c-0.545-4.124-0.565-8.771-4.004-10C693.688,401.689,689.574,404.576,682.998,405.001z
		 M771.003,421c3.442,14.83-0.586,29.806-9.001,36c3.109,10.091,2.434,26.571-5,33.999c-7.048-7.479-19.662-3.263-18.999,6
		c0.383,5.404,13.167,12.439,17,13c10.124,1.483,15.348-7.253,23.999-8c4.061-3.937,3.898-12.1,6.999-17
		c7.08,19.765,0.741,47.575-14.998,54c-3.146-0.712-5.998-5.273-10.002-2c-3.174,1.597-2.12,8.958-1.001,12
		c2.368,1.066,4.403,3.507,5.998,4.002c15.055,4.653,23.975-7.21,30.005-14.001c2.382-2.688,6.842-4.063,8.998-6.999
		c7.104-9.676,4.306-20.135,8-30c7.626,2.329,9.448,14.821,8,23c-2.043,0.934-6.633-0.755-9.001,2
		c-1.774,4.893,0.374,7.987,3.003,11c19.101,3.076,16.35-18.183,17.001-28.001c10.912,4.565,19.018,28.204,9.993,40
		c-1.042-4.708-6.34-7.926-11.995-5.001c-13.021,29.228,48.363,23.706,35.001-8c2.441-2.688,5.005-4.317,5.998-6.999
		c7.104-19.206-13.144-34.08-13.997-43.001c17,6,32.608,13.389,31.998,37c-4.582-1.569-4.663,0.358-6.998,3.001
		c0.528,18.201,17.936,9.023,19.995,0c4.142-18.162-11.931-35.569-20.997-41c-3.841-2.301-8.976-0.903-10.001-6
		c10.555,2.588,37.769-6.537,38.997,10c-0.562,3.764-4.703-0.936-4.996,4c5.664,17.375,16.446-1.103,13.997-12
		c-4.573-20.353-38.362-8.008-56.999-23c-8.586-6.911-5.924-12.519-12.004-20.001c-4.012,4.315-8.585,8.081-12.996,12.001
		c1.042,12.927-1.213,23.689-10.002,29c-4.564,2.761-14.713,7.245-20.996,6c-12.233-2.427-15.11-27.49,3.996-24.001
		c-0.423-12.571-2.62-23.381-8-31c1.107,20.722-34.91,15.727-22.996-4.999c2.792-2.332,7.755-0.271,8-3.001
		c0.204-9.54-2.213-16.453-6.001-21.999C782.685,412.686,775.91,415.908,771.003,421z M548.998,409.001
		c2.734,0.089,2.018-1.666,4.004,0c-0.545-1.455,1.167-5.17-1.001-5.001C551.691,406.358,548.525,405.862,548.998,409.001z M476,422
		c-0.472-5.54,2.083-11.186,6.001-14.999c-6.58-0.438-16.833-2.482-23.002,0C467.536,409.129,472.211,415.123,476,422z M723,423
		c6.063,0.271,11.141,1.524,17,2c-1.2-6.47-3.263-12.069-6.002-17C733.934,416.604,727.025,418.357,723,423z M670.002,428.001
		C666.226,437.557,659.166,443.834,647,445c-33.711,29.989-58.061,68.024-60.999,127c-5.038,101.043,35.665,181.781,95,221.002
		c0.61-0.057,1.184-0.15,1.001-1.001C636.913,752.043,589.468,678.789,596.002,589c2.604-35.812,19.271-64.738,38.998-87.999
		c21.33-25.153,50.716-50.81,95.003-45.001c-1.473-3.528-2.604-7.397-2.002-13c-27.246-2.525-49.447,5.882-66,16.001
		c-5.685,3.473-10.018,10.555-17,10c15.894-17.069,42.171-31.372,72.998-31c9.647,0.116,17.464,2.01,23.999-3.001
		c0.105-9.104-12.02-5.976-18.999-8c-6.05,8.86-20.528,11.314-30,4c-7.829,2.372-14.99,5.662-21.997,10
		c-6.356,3.935-12.175,11.493-18.001,10.002C662.246,438.91,676.553,431.883,693,427c-1.123-3.857,1.798-8.781,0-10
		C685.139,420.472,678.148,424.817,670.002,428.001z M632.001,436.001c-0.012,1.32-1.753,0.914-1.998,2
		c-29.362,26.16-54.313,66.99-57.003,121c-3.316,66.504,12.154,118.534,33,159.998c5.815,11.563,10.511,24.719,22.001,29
		c-28.003-42.005-49.65-105.807-46-176.999c2.917-56.889,27.458-98.537,58.997-126.001
		C635.61,444.393,634.728,439.274,632.001,436.001z M760,464c-2.376-0.625,0.155-6.155-2.002-6.999
		c-3.133,0.867-5.518,2.476-6.999,4.999C755.422,460.635,758.218,466.041,760,464z M423.997,462c-1.314,10.03-6.954,32.723,0,41.001
		c-2.222-16.28,5.404-33.199,2.002-44c-0.667,0-1.334,0-2.002,0C423.997,460,423.997,461.001,423.997,462z M428.001,506
		c4.586,0.08,6.445,2.891,12,2c-0.078-7.412-0.228-14.893,0.997-21c-10.726-2.881-13.957-23.364,0-25
		c-2.417-1.245-4.854-2.476-8-2.999C429.124,472.461,427.854,488.521,428.001,506z M749.001,465.001
		C710.749,451.347,674.323,466.594,651,489c-16.187,15.552-32.121,36.342-41,58c-21.639,52.775-5.636,120.982,16,165
		c16.703,33.984,38.545,64.25,64.001,80.001c-18.376-14.295-35.852-41.13-48.002-72.001c-10.502-26.688-26.066-61.938-27.999-93
		c-3.357-54.087,19.022-86.023,44.999-112C672.496,501.506,692.41,485.396,714,483c17.965-1.994,28.097,1.496,43.001,2
		c-7.622-10.655-26.115-14.634-43.001-13c-32.056,3.103-64.474,34.202-80.001,57c-2.815,4.139-3.479,11.878-9.998,12
		c15.739-28.675,46.786-69.068,89.001-73c4.558-0.423,11.613-0.6,17,0c11.483,1.286,22.363,9.436,28.996,8.002
		C762.108,468.799,754.637,467.011,749.001,465.001z M416.999,497c-2.075-12.496,4.484-26.733,0-35
		C407.664,468.341,408.132,490.455,416.999,497z M344,498c7.125-3.208,18.335-2.332,27.002-4c-5.013-4.74,0.008-13.019,4.997-14
		C360.5,477.228,349.211,487.165,344,498z M445.001,487c-1.229,6.107-1.083,13.588-1.001,21c5.953,0.287,9.253-2.081,13.998-2.999
		c-0.952-8.636,2.572-18.083,1.001-24.001C456.505,485.173,451.17,486.503,445.001,487z M814.002,521c0.668,0,1.335,0,1.994,0
		c0.667,0,1.334,0,2.002,0c-1.57-2.759-0.041-8.624-2.995-10C815.589,515.257,814.279,517.615,814.002,521z M347,522
		c9.827,0.173,15.503,4.499,21,9c-2.413-10.817,6.006-13.623,11.002-13.999C371.125,508.563,350.308,511.617,347,522z M481,519
		c5.432-0.763,8.102,1.233,13,0.999c0.008-2.655-0.378-5.711,1.001-6.999C488.833,513.497,483.495,514.828,481,519z M489,602
		c2.209,1.46,0.793,6.541,2.999,8c-0.675-8.673,5.306-10.693,11.003-13c-2.881-6.454-3.426-15.243-5.001-23
		c-2.836,0.102-6.612-3.963-8-2C497.333,579.186,497.321,596.09,489,602z M460,608c17.35,53.979,40.951,101.722,79,135.002
		c1.827-2.845,6.417-2.918,8-6.002c-27.128-37.536-48.881-80.452-60.999-133c-3.418,2.425-12.077-0.31-14.001,1.001
		c3.544,12.5,12.219,25.051,12,37.997c-13.859-18.136-15.942-48.051-25-70.999c-0.773,0.226-1.969,0.028-1.998,1.001
		C463.19,579.554,463.336,597.962,460,608z M481,587c-2.876-6.132-9.501-13.818-15.999-13c2.291,3.707,0.972,11.029,4,14.001
		C472.207,583.423,479.128,586.978,481,587z M427,633c19.771,53.711,53.605,100.477,96.998,123.002
		c-1.961-6.079-8.431-8.198-12.997-12.003c-35.803-29.834-60.799-70.654-77.002-118.999C423.102,623.114,417.202,605.075,427,597
		c-3.353-5.648-2.116-15.881-5.998-20.998c-1.001,0-2.002,0-3.003,0C415.017,597.817,419.721,613.223,427,633z M514,606
		c1.119-13.784-4.252-21.082-10.999-27C504.295,590.373,507.16,600.173,514,606z M430.003,597c2.824-0.826,2.588,1.41,4.997,1.001
		c1.546-5.09-3.784-16.717-8-16C428.746,586.255,429.669,591.33,430.003,597z M514,585c6.091,7.831,6.58,32.941-8,28.001
		c0.725-3.642,4.716-4.612,1.998-9c-18.05-5.44-12.394,16.785,0,17.999c20.451,2.006,27.889-24.498,18.001-41
		C523.623,583.954,519.196,584.864,514,585z M375.999,593c2.368-5.027,8.464-0.333,11.003-2c-2.84-2.493-5.713-4.954-12.004-4
		C375.576,588.758,373.794,592.875,375.999,593z M1540.004,598c5.77,4.897,12.63,8.704,18.994,13
		c4.898-0.335-1.514-1.025-0.993-3.001c-0.057-1.277-1.286-1.385-1.001-2.999c-0.732-4.73,1.424-6.576,2.995-9.001
		c-5.526-5.147-15.788-10.862-26.001-8C1537.416,589.919,1538.669,593.997,1540.004,598z M377,623
		c-4.024-9.975-4.72-23.283-6.999-35c-3.564,1.434-5.9,4.098-10.001,4.999C359.813,608.191,368.223,620.105,377,623z
		 M253.001,590.001c-0.61,0.057-1.184,0.148-1.001,0.999c8.547,4.716,14.626,10.815,15,21c0.195,5.308-3.072,10.683-3.001,16.001
		c0.305,22.911,17.137,43.362,24.001,60c1.813-3.52,4.865-5.803,6-10.002c-3.8-5.529-6.675-11.991-9-18.998
		c-10.606-1.892-17.149-17.533-8-25c-3.648-12.352-5.743-26.257-6-42C266.616,589.797,258.946,587.545,253.001,590.001z
		 M280.001,633c3.986-0.862,7.387,1.493,8.999,0c4.23-17.859-3.971-31.146-14-38C275.568,606.022,277.93,620.522,280.001,633z
		 M348,598c6.083,1.918,2.504,13.495,10.999,13c-1.323-5.345-1.298-12.034-3.996-16.001C353.77,597.104,348.979,595.646,348,598z
		 M406,607.001c4.952,25.892,13.18,48.92,24.003,67.999c3.532,6.234,9.994,12.358,8.997,20c-18.437-22.563-30.929-51.07-35.999-87
		c-4.346-0.344-5.583,2.419-9,3.001c7.471,47.972,29.545,82.082,54.997,110c3.475,3.809,8.671,8.5,10.001,14.001
		C423.163,707.17,400.73,665.938,390,613.001c-5.025,0.356-9.07-0.267-12-2c8.37,37.026,22.945,70.136,42,95.001
		c6.592,8.606,15.466,14.771,20,23.999c-12.545-6.656-22.059-18.339-30.001-30c-8.122-11.927-14.307-26.652-21-39.999
		c0.476,6.145-1.005,10.327-1.998,14.998c12.988,22.819,27.531,44.17,45.996,60.002c6.567,5.624,15.324,8.017,20.003,16
		c-8.863-2.026-17.164-8.094-24-14.002c-17.366-15.007-32.45-35.645-43.001-56.999c-4.313,0.017-3.687,4.98-8,5.001
		c24.687,47.978,66.203,79.13,118.999,98.999c5.277-3.06,10.465-6.201,13-11.999c-6.266-2.157-13.834-5.286-19.999-9.001
		c-5.205-3.137-14.01-7.589-13-14.001c11.646,7.022,22.103,15.229,36.002,19.999c2.344-3.316,5.896-5.433,6.999-9.998
		c-56.653-33.35-88.896-91.104-108-162.001C412.604,602.938,407.298,602.963,406,607.001z M448.998,619.001
		c15.071,47.857,40.006,90.073,72.005,120.001c3.247,3.035,7.857,7.837,12.997,8C499.535,710.466,473.802,665.198,456,612
		C455.313,615.979,449.042,614.376,448.998,619.001z M221,616c9.334,74.516,61.717,125.932,112,159.001
		c7.157,4.707,16.001,8.65,21.002,15.999c-34.391-14.47-63.063-40.076-87.001-68.001C242.985,694.987,221.35,661.182,216,616
		c-1.611,30.44,11.2,57.112,25,79c10.339,16.397,23.421,32.422,36,44.999c4.049,4.053,11.729,7.308,12,14.001
		c-21.12-13.924-36.59-34.704-50-56.001c-13.698-21.758-25.047-46.216-29.999-76c-3.88,18.418,3.572,36.526,10,50.999
		c16.72,37.659,42.7,67.867,73,90.003c6.089,4.447,13.703,8.354,18,14.998c-14.541-4.72-27.141-14.978-38-25
		C238.821,722.38,214.162,683.61,202,633c-12.077,15.499,5.371,21.79,8,31.999c1.495,5.802-1.74,10.767-0.999,17
		c1.054,8.899,9.865,21.448,15.999,31.002c15.676,24.41,35.871,44.071,57.001,59.998c3.859,2.913,11.22,5.065,10.999,11.002
		c-37.217-20.446-62.165-53.17-83.999-89.001c0.948,7.283-4.181,8.487-5.001,14.001c7.776,13.2,19.667,26.664,30.001,37
		c2.958,2.958,9.82,7.482,6.999,11.999c-16.717-12.947-29.628-29.703-41-47.998c-2.458,3.54-9.204,2.796-13,4.997
		c18.122,31.966,50.411,60.795,87,83c36.369,22.074,79.376,41.671,127,44.002c18.4,0.899,32.031-1.624,44.002-8
		c-23.97,1.404-49.752-4.415-70.003-10.001c-6.677-1.844-16.187-2.133-18.998-9.001c30.229,7.438,58.171,17.167,98.002,15.003
		c2.421-2.914,6.868-3.797,8-8C372.374,808.672,305.296,760.926,260,699c-15.261-20.862-36.294-54.391-35-85.999
		c-1.001,0-2,0-3.001,0C221.944,614.279,220.718,614.384,221,616z M347,674c-1.778,1.27-4.297,0.154-6,1
		c-3.831,1.909-5.849,8.875-12,6.999c-1.164,9.632,0.722,17.155-4,22.001c-0.26-13.757-14.811-9.253-15,0
		c-0.267,13.14,19.464,15.698,27,5.001c15.83,1.16,30.023-7.975,33.001-23.002c-14.063-5.428-8.569-21.676,0-25.997
		c1.343-7.894-5.721-11.991-3.003-18.001c6.478,3.854,7.324,13.342,6.999,23.999c-16.646-0.252-6.111,23.527,6.006,14.001
		c13.054-24.979-2.454-62.156-25-64.001C356.419,636.187,362.995,662.606,347,674z M527,618c-1.766,5.236-9.473,4.528-12,9
		c2.071,11.733,12.626,25.185,9.998,35c-6.86-9.807-10.637-22.693-13.998-35.999c-8.952,2.767-14.413-8.006-17-5.001
		c14.445,43.221,32.186,83.151,58,114.999c6.897-1.77,12.923-4.411,21.997-4C552.696,699.639,539.203,659.465,527,618z
		 M528.001,750.001C489.728,717.607,463.068,673.597,444,622c-0.846,1.487-3.223,1.449-5,2
		C453.954,676.051,486.904,724.098,528.001,750.001z M277,676.002c-7.045-13.29-13.397-27.271-15.999-45.002
		c-4.102,0.897-6.942,3.061-10,5.001c-0.917,10.183,8.492,19.81,4.999,25.999c-6.201-4.797-6.993-15.007-9-23.999
		c-3.544,1.448-10.454,1.448-14,0c5.76,21.24,15.796,38.204,27,54c3.467-10.404-0.399-14.95,1.001-21c3.831,0.5,3.387,5.277,6,6.998
		C268.413,674.854,276.121,676.9,277,676.002z M1533.998,699c29.939,1.7,45.108-12.269,57.007-26.002
		c-9.709,8.216-34.872-4.98-51.001-6.998c-16.024-2.002-22.917-9.762-13.005-19.999c-4.021-2.665-9.065-9.577-13.997-8
		c7.193,7.918,7.552,25.635-1.001,31.999c4.41,29.688-42.285,18.388-23.999-4c-5.583-9.42-15.015-14.986-29.997-14.998
		c5.241,7.568,4.98,21.594-3.003,26C1479.164,680.844,1504.953,697.352,1533.998,699z M191,649c1.742-0.074,3.111,0.224,4,1
		c0-1.33,0-2.665,0-3.999C192.497,645.83,191.87,647.539,191,649z M1408.998,666c-2.246,18.953,36.466,19.763,54.004,25
		c21.915,6.547,43.555,14.628,63.997,15.999c11.312,0.761,24.097,0.736,27.002-4.996c-26.563,2.815-44.734-1.196-65.999-10.002
		c-15.503-6.417-28.483-10.16-44.003-12c-8.797-1.046-15.405-8.532-18.001-15.999c-2.083-4.402,4.924-8.171,0-9.001
		C1420.497,656.999,1409.966,657.906,1408.998,666z M1443.999,674c-4.004-1.299-3.475-8.447-1.001-10.999
		c-3.597-2.4-5.672-6.323-10.994-6.999C1425.998,665.056,1436.862,675.253,1443.999,674z M289,660.002
		c3.046,3.621,3.603,9.729,7.001,12.996c0.858-5.415,1.939-12.902-2-15.995C293.362,659.029,289.325,657.658,289,660.002z
		 M1429.001,699c30.591,10.807,66.374,19.312,98.999,21c4.272-3.064,9.065-5.604,13.005-9.001
		c-29.631,1.009-46.884-5.627-73.007-13.997c-24.788-7.943-55.444-6.836-62.996-26.001c-0.057-0.61-0.146-1.185-1.001-1.001
		C1398.036,689.263,1416.24,694.491,1429.001,699z M154,677.999c-7.42,21.831,2.395,45.943,11,61.003c4.431-1.904,10.72-1.949,15-4
		c-10.565-14.771-19.782-30.888-19-57.003C158.667,677.999,156.333,677.999,154,677.999z M166,685.002
		c1.088-3.247,4.893-3.775,7-6.002c-3.22,0.22-4.231-1.77-8-1.001C165.595,680.07,163.764,684.571,166,685.002z M309.001,696.001
		c1.247-5.054,9.436-6.336,14.998-4c1.776-1.893,0.73-6.604,1.001-10.002c-3.708-0.622-5.855-2.812-9-4
		C315.052,684.733,307.449,690.097,309.001,696.001z M136,689.002c9.212,7.223,14.061,25.854,4,35.999
		c2.454,7.548,6.344,13.655,8.999,21c4.816-0.851,7.186-4.15,12.001-5.001c-8.811-15.296-16.695-39.555-13-60.999
		C143.819,682.817,139.805,685.808,136,689.002z M357.001,708c16.728,28.951,51.978,55.688,85.999,73.002
		c14.551,7.402,42.635,20.761,51.001,4.997c-54.736-17.928-93.343-51.989-120.003-97.998
		C371.458,697.787,366.352,705.018,357.001,708z M1412.001,697.002c11.881,11.865,33.521,8.292,36.002,25.997
		c0.505,3.601-1.985,7.112-2.002,13c-0.016,6.486,2.897,12,2.002,16.004c-2.905,12.947-25.406,14.827-25,0.996
		c0.188-6.53,5.583-5.757,5.998-9.997c-5.103-6.238-20.271-7.719-27.002-9.001c4.484,13.493-4.199,22.461-13.997,25
		c17.659,2.274,34.058,13.42,52.002,9.998c5.493-1.046,13.232-7.467,19.995-10.999c21.191-11.06,43.774-22.172,60.001-34
		C1480.059,720.594,1439.133,706.43,1412.001,697.002z M298,702.999c15.499,25.729,37.828,45.35,60.999,62
		c7.967,5.725,17.651,9.969,23.999,18.001c-18.384-6.6-35.252-18.876-49.998-31.998c-14.828-13.2-27.143-29.753-39-45
		c-5.672,2.808-17.995,5.103-23,0c45.807,56.527,104.995,99.671,194.997,112c1.595-2.738,3.735-4.936,5.005-8
		C406.964,794.369,358.657,763.014,322,720c-13.552-0.114-15.229-12.105-18-22.998C303.079,700.078,299.998,700.997,298,702.999z
		 M1074.004,793.999c-26.75-12.842-39.177-34.64-56.006-58c-5.803-8.057-17.464-31.648-26.001-33
		c-5.688-0.898-19.222,4.375-22.998,7.003c-6.087,4.24-11.482,13.737-18.001,21C926.543,758.257,901.6,786.553,874.996,808
		c13.29,5.123,18.4-6.954,26.002-6.998c-3.72,11.067-14.893,12.023-24,10.998c-18.521-2.083-35.994,15.467-56.998,12
		c26.799,14.538,52.661,30.009,94.002,30c7.39-7.031,10.922-17.366,14.999-27.998c3.792-9.888,6.998-22.104,14.998-28.003
		c2.596,2.612-5.241,12.068-2.995,11.002c4.892-4.109,4.574-13.428,8-19.002c6.25,16.064-11.157,25.411-13.005,40.003
		c-2.319,2.213-2.677,0.883-4.996,1.997c-1.97,9.038-7.162,14.84-11.003,22.001c66.496,5.453,122.209-8.427,164.998-30
		c-6.909-6.763-21.256-11.401-20.996-22.002c9.091,6.242,15.381,15.292,27.002,19.003c8.065-2.934,17.399-4.603,23.999-9.001
		c-21.158-4.053-39.038-15.657-55.005-17c-0.895-1.767-2.408-2.918-2.994-5.001C1063.4,783.204,1068.804,796.615,1074.004,793.999z
		 M93,710.002c-0.336,10.669,0,20.667,4,26.998c3.493-0.509,7.552-0.447,10.002-1.998c-8.98-6.014-4.549-23.319,6-24.003
		C108.417,709.038,98.535,707.76,93,710.002z M73.999,718.002c11.397,1.604,13.536,12.463,17,21.997
		c1.837-5.273-3.243-19.768-2.999-29.997C82.971,712.306,77.157,713.823,73.999,718.002z M185,735.999
		c5.032-1.318,9.505,3.104,12,1.001c-5.75-6.584-11.403-13.261-13.999-22.998c-4.966-0.37-8.543-2.124-12-4
		C174.605,719.731,179.655,728.012,185,735.999z M352,710.999c-7.184,4.15-19.676,2.991-25,9.001
		c36.947,40.389,82.845,71.822,146,86.002c1.77-1.933,9.937-6.896,6.002-8.003C423.041,782.626,383.145,751.188,352,710.999z
		 M1342.998,725.001c8.334,10.343,19.523,23.145,31.999,26.001c-3.621-0.708-1.375-7.288-1.994-11.003
		c2.189-2.808,3.988-6.01,9.001-5.998C1378,721.957,1353.797,715.211,1342.998,725.001z M127,739.002c8.73,0.936,10.948,8.387,17,12
		c-0.307-2.308,2.889-1.111,2.999-3.003c-5.318-5.681-7.583-14.413-10.999-21.997C135.639,732.972,129.419,734.087,127,739.002z
		 M1337,742.001c4.948,5.261,10.791,8.903,17.001,13c5.77,3.805,13.444,6.918,17,13.001c-14.868-2.567-27.97-15.291-38.997-25
		c-3.963,2.913-10.229-0.407-15.007,0c4.272,11.129,18.799,21.599,36.003,29c14.046,6.042,47.51,17.684,59.001,9.997
		c-6.462-2.539-17.563-0.436-20.004-6.998c11.931-0.826,31.137,9.379,39.006-2.999c-41.35-3.988-72.746-17.929-90.999-44.999
		C1341.037,734.034,1338.522,737.525,1337,742.001z M210,768.002c8.958-35.718-53.042-33.175-65-12
		c3.821,3.179,1.926,12.073,4,16.997c3.302-6.836,19.637-7.243,31.002-9.998c3.416-0.83,6.13-5.403,10.999-4
		c2.157,0.623,9.656,5.912,2,9.001c-1.998-1.335-0.13-6.539-4.999-5.001C177.163,780.99,206.592,781.588,210,768.002z
		 M1306.003,756.999c13.069-1.106,16.528,11.422,25,18.002c5.103,3.963,14.209,5.948,20.996,7.999
		c7.405,2.238,17.244,2.226,21.004,8c-14.478,0.476-30.176-6.49-42-12c6.348,18.612-21.272,28.695-23.999,12
		c-1.033-6.303,4.451-7.805,1.994-9.998c-3.271-3.739-14.039-5.273-19.996-3.003c7.309,3.023,13.086,7.577,12.997,18.002
		c16.65,5.139,34.766,14.729,56.006,10.998c14.348-2.519,28.125-14.742,39.998-17.997c-36.873-6.466-67.488-19.182-87.003-43.001
		C1310.446,750.782,1307.81,753.479,1306.003,756.999z M203.001,781.999c15.792,0.546,25.942,24.256,12,34.001
		c7.133,7.255,23.118,10.808,25,19.999c-10.835-3.161-16.719-11.279-27-14.998c-1.877,22.147-39.917,17.285-35-4
		c1.227-5.318,5.798-6.783,12-9.001c-8.126-3.764-22.564-3.67-29,2.002c2.58,3.085,4.667,6.665,4,12.997
		c32.45,29.898,94.582,52.303,154,55.001c18.27,0.83,29.364-0.407,38-9.001c-12.716-2.067-34.55,0.228-45.001-6.999
		c11.617-4.521,48.435,11.043,53.998-2.999c-37.099,0.794-70.581-11.291-96.997-23.999c-8.84-4.256-20.19-7.133-25-16.003
		c35.05,16.622,74.585,37.414,129.997,37.003c1.018-2.652,4.626-2.709,6.006-5C327.946,847.12,287.372,826.34,254,805.001
		c-4.425-2.832-12.661-4.947-13-11.999c42.252,24.442,87.582,56.38,152,51.998c-79.897-9.77-132.579-46.753-179.999-88.998
		C217.108,768.413,209.601,777.047,203.001,781.999z M166,770c3.28,2.722,5.87,6.132,8,10.001c4.1-0.235,8.177-0.492,11-2.002
		c-3.377-1.326-5.646-7.841-4-10.998C175.159,767.159,168.547,766.549,166,770z M71,799c5.835-9.896,24.65-7.642,30.001,1.001
		c0.181-9.151,5.707-12.96,8.999-18.999c-3.648-2.262-1.758-10.217,0-13C87.771,768.441,72.426,781.092,71,799z M132.001,805.001
		c5.035-8.003,22.302-21.004,37.999-25c-4.438-1.896-4.541-8.125-10-9C146.771,778.438,136.564,788.9,132.001,805.001z M213,791
		c-18.815-19.145-72.532-0.521-79,18.001c5.629-3.658,15.212-7.234,23-2.999c9.937-4.898,31.213-8.179,37.999,1.998
		c0.972,1.457,5.759,11.016,0,13.001c-1.404-3.597-1.862-8.139-6.999-8c-23.854,15.259,26.144,29.667,22,1.001
		c-0.757-5.232-5.784-4.517-4.999-11.003c6.435-0.435,5.458,6.543,10,8C220.021,805.669,217.684,795.765,213,791z M130.001,863.001
		c-10.309-19.1-7.076-57.601,4-73.002c-8.285,4-17.227,0.077-23-4C91.39,811.695,115.049,852.373,130.001,863.001z M1259.998,816
		c19.101,13.078,53.142,13.261,73.007,1.001c-12.443-1.559-23.86-4.143-34.001-8c-7.633,13.705-31.104-2.315-17-13
		c-5.64-3.04-16.626-6.026-25-2.999C1264.702,795.956,1265.996,810.177,1259.998,816z M1300.998,806.002
		c13.322,2.56,30.94,10.771,46.004,4.997c-18.303-0.036-30.754-5.912-45.003-9.997
		C1302.829,803.825,1300.591,803.59,1300.998,806.002z M1253,828c-14.99,3.865-13.745-12.704-20.996-17.998
		c-8.643-6.303-15.104-1.92-28.003-2.002c13.086,19.21,58.415,37.37,87.996,22.002c-13.55-0.781-23.356-5.307-32.999-10.002
		C1258.371,825.48,1256.629,827.063,1253,828z M156,810.002c-5.485-3.625-14.339-1.493-18,0.997
		C113.609,827.613,136.092,885.315,164,883c-12.242-8.756-18.445-23.555-19-43.998c-11.56-3.117-3.105-26.481,5-14.001
		c-1.078,2.588-8.294-0.965-7,3.999C151.001,847.922,170.624,819.67,156,810.002z M1206.003,830.002
		c14.624,6.408,35.498,19.75,53.995,9.997c-27.14-4.191-48.03-14.636-62.996-30.998
		C1198.142,814.015,1208.127,818.421,1206.003,830.002z M1160.999,838.001c-9.049,1.859-10.84-5.558-18.001-6.002
		c-0.317,6.425,8.765,12.492,15.999,16c23.178,11.238,56.112,7.222,78.003-1.998c-12.988-1.677-21.988-7.341-31.998-12
		c-1.156,13.347-25.635,5.493-16-6.001C1176.429,813.046,1170.456,836.061,1160.999,838.001z M159.001,837
		c22.559,17.334,53.902,33.398,87,39.002c4.71,0.797,11.861-1.526,15,4c-35.254-0.013-64.519-13.705-87.002-28.004
		c-7.877-5.009-15.354-13.073-25-12.996c3.194,16.545,21.149,24.345,34.001,29.997c4.785,2.107,12.253,2.246,13.999,7.999
		c-20.886-2.111-32.112-13.883-45.998-22.998c3.465,13.656,11.708,30.355,29,31.999c15.578,1.485,31.744-7.942,46.999-5.997
		c11.293,1.436,22.023,12.813,33,13.997c18.186,1.965,27.793-12.671,41.001-13.997C243.364,874.639,198.958,856.043,164,828
		C164.406,833.073,159.983,833.317,159.001,837z M1141.004,853c8.725,8.35,25.847,12.788,38.998,6.001
		c-15.601-3.739-29.265-9.403-38.998-19.002C1139.783,845.35,1143.462,849.562,1141.004,853z M1103,851.998
		c7.202,15.296,31.51,21.261,51.001,13.001c-5.6-1.737-9.961-4.704-13.998-8c-3.556,11.174-24.21,7.313-17-7.999
		C1118.096,845.021,1104.798,846.574,1103,851.998z M1063.001,858c-7.112,0.924-10.115,4.277-15.999,9.001
		c21.867,1.489,50.993,7.088,69.995,1.998c-7.951-2.376-11.938-8.724-17-13.997C1094.577,872.218,1077.356,856.141,1063.001,858z"/>
	<path fill-rule="evenodd" clip-rule="evenodd" d="M1599.997,710.999c0,1.335,0,2.669,0,4
		c-42.708,15.349-80.664,48.665-112.996,81.002c-33.228,33.231-67.627,64.355-101.001,93.001
		c-34.473,29.59-69.361,59.888-111.003,83c-41.22,22.884-84.799,47.359-129.997,63.997c-27.678,10.189-58.081,17.948-85.002,31.002
		c-11.084,5.375-24.088,13.017-38.997,18.998c-12.605,5.063-32.649,14.364-45.003,14.002c-4.077-0.118-9.14-3.906-14.999-4
		c-4.532-0.073-9.131,2.669-15.999,2.999c-45.784,2.205-58.415-35.962-103.996-39.998c-25.398-2.251-47.271,0.068-64.003-17.001
		c-10.636-10.852-16.402-20.866-29-27.002c-14.001-6.815-25.842-9.533-37-19.999c-26.351-24.711-52.311-94.214-11.002-114.998
		c-31.551-17.745-59.204,8.333-81.999,17.997c22.705,1.595,61.67,45.613,21,54c-13.464,19.686-45.524-6.755-25-20.996
		c-5.709-1.343-15.646-1.934-20,0.996c8.146,9.286,9.273,41.594-9,42.001c-13.029,0.293-14.217-17.407-2.999-19.999
		c-0.623-11.377-10.242-13.758-18.998-17.001c7.186,9.078,9.253,26.949-2.002,34.001c-7.471,4.68-22.811,2.885-20.003-10.002
		c1.205-3.458,6.718-2.616,8-5.997c-1.762-7.117-7.561-12.716-14.999-15.003c-4.85-1.489-12.183,1.538-14.999-4
		c14.559-3.104,35.686,4.228,34.001,24.003c-1.994,3.842-7.198-1.387-8,4c11.581,15.214,24.87-5.66,18.001-20.003
		c-3.21-6.693-10.88-5.029-10.001-12c18.4,1.934,35.066,5.604,33,28.003c-2.987,1.16-7.666-1.529-8,4
		c9.684,15.369,18.306-2.087,18.001-14.001c-0.468-18.107-15.242-22.412-28.003-27.002c7.642-5.811,17.473,3.08,22.998,6.002
		C606.004,916.647,640.974,938.123,623,945c-1.151-2.584,2.82-7.634-1.998-9.998c-12.207-0.834-10.376,12.098-7.003,16
		c4.85,5.606,18.152,5.123,23.002-2.002c3.418-5.025-1.184-8.765,3.996-12c2.506,2.055,2.4,7.821,1.001,10.999
		c9.704-0.907,12.248-11.153,10.001-18.998c-4.769-16.639-28.166-26.021-46-29c-4.341-0.725-11.678,0.565-13-5.001
		c3.239-1.961,10.583,1.033,19.002,0c18.29-2.242,33.806-22.502,56.999-25c22.827-2.458,46.858,8.577,38.997,29
		c-4.606,0.61,0.594-8.594-4.997-6.999c-13.888,6.571-0.871,18.314,9,15.999c4.582-1.074,4.143-5.717,9.001-10.001
		c3.401-2.999,9.416-2.12,9-6.999c-0.854-9.888-0.7-20.451-9-26.001c-8.057,10.71-27.669,2.177-21.004-9.997
		c-10.482-5.42-29.191,1.477-35.999-1.002c9.119-7.845,39.547-7.759,43.998,4c-2.698,1.632-4.826-1.058-4.997,4
		c5.892,8.817,13.94,2.303,13.998-4c0.114-12.365-21.224-16.816-30.998-17c-22.64-0.428-38.351,15.45-52.002,19.999
		c-19.759,6.588-30.444-9.424-15.999-18.998c-3.841-6.823-13.835-7.495-25-6.999c8.895,20.109-24.768,26.262-25,6.999
		c-3.971-3.08-9.106,1.159-12-2.999c10.836-8.932,17.509,4.813,21,9.998c10.774,5.236,17.31-10.327,9-16
		c15.088-4.537,39.055-3.015,37,16c-3.104,3.531-4.346-3.076-7.002,0c-2.669,5.501,0.834,9.062,4.004,10.001
		c15.234,4.513,21.732-23.954,9-32.003c-2.563-2.104-6.86-2.474-10.001-3.999c2.1-12.447,26.09-12.817,29-0.997
		c-0.72,2.877-8.125,2.376-5,5.998c9,8.683,14.192-4.957,14.001-10.999c-0.517-16.305-18.632-20.027-31.001-21
		c15.027-9.029,34.448,4.081,35.001,21c0.513,15.694-17.732,25.777-22.998,9.997c0.448-3.548,3.373-4.622,3.996-7.999
		c-5.245-1.318-14.323-2.092-17,2.002c13.867,1.762,17.375,23.148,13.004,34.001c15.926-18.633,77.519-30.221,83,5.997
		c5.998,2.336,8.032,8.635,12.996,12c37.549,2.262,43.465,36.401,65.998,54c26.025,20.324,67.098,11.856,98.006,31.001
		c6.445,7.886,16.805,11.865,17,26.001c-2.107,1.893-6.404,1.596-6.006,5.998c8.423,9.29,14.282-0.313,13.005-9.997
		c-1.343-10.186-13.403-15.308-15.999-22.002c15.055,3.256,14.185,12.887,19.995,21.001c14.404,20.097,40.299,33.003,65.999,35.998
		c18.791,2.189,45.988-4.024,47.005,18.001c-0.171,4.078-6.429-1.904-5.997,4c0.895,4.55,6.934,5.981,9.993,2.999
		c3.841-0.826-0.073-9.411,4.004-9.997c17.928,2.07,23.527,21.797,43.001,18.998c-16.707-3.793-24.097-17.212-38.004-25
		c-9.123-5.111-19.735-9.737-34.001-10.999c-11.214-0.992-21.289,0.114-30.998-2.002c-53.035-11.548-63.224-67.098-120.996-71
		c-28.247-1.904-53.548-14.827-67-33c-4.336-5.851-8.682-15.409-8.006-21.997c2.62-25.5,48.484-7.548,57.005-2.002
		c8.659,5.64,11.931,15.483,18.994,23.003c9.651,10.258,28.142,14.123,37.004,21.997c-9.57-10.812-37.834-40.483,1.001-38.001
		c7.12,3.459,8.919,11.604,13.997,16.004c5.827,5.041,15.218,7.788,20.003,12.996c8.432,9.188,9.563,24.621,18.002,32.003
		c6.16,5.392,15.323,5.44,22.998,9c2.881,1.339,5.11,4.814,7.999,5.998c13.07,5.359,28.491,3.707,37.997,13.001
		c-21.159-19.17-60.1-20.562-59.001-62c4.158-9.208,18.147-9.489,28.003-6.002c14.6,5.168,28.792,19.784,42,30.001
		c40.316,31.185,80.729,71.969,141,75c-11.483-1.493-23.755-8.138-34.001-17c-16.472-14.25-38.069-21.216-37.996-47.998
		c19.873-23.466,42.952,10.429,67,13.997c3.638,0.541,7.243-0.321,10.994,0c24.821,2.132,42.563,22.645,65.007,15.003
		c-12.955-2.393-24.137-2.881-35.002-9.001c-5.899-3.32-30.477-18.192-30.005-26.001c0.619-10.059,18.425-11.495,28.003-9.998
		c14.169,2.21,22.975,11.316,36.003,12.997c22.331,2.885,41.415-7.32,59.001-2.999c-9.831-7.642-24.919-2.242-39.006-4
		c-5.07-0.631-14.136-5.392-21.997-9.001c-7.503-3.438-16.446-6.095-21.997-9.997c-6.34-4.456-20.279-25.032-20.003-30.001
		c1.065-19.336,32.097-5.221,39.998-2.002c7.194,2.934,11.386,8.646,18.001,12c16.488,8.365,59.131,10.489,80.998,7.002
		c-11.353,0.094-21.053-2.299-29.996-5c-11.711-3.536-14.25-7.581-21.998-13.001c-4.076-2.849-22.217-6.975-21.004-15.999
		c1.457-10.791,17.586-3.748,28.003-2.999c6.413,0.46,13.681-0.594,18.994,0c16.683,1.863,29.761,13.285,43.001,9.997
		c-4.41-2.128-7.373-6.217-6.998-10.998c1.424-18.136,30.078-7.698,40.999-8c24.382-0.675,42.375-24.386,59.001-40.002
		C1496.465,782.183,1542.754,729.195,1599.997,710.999z M1395,876.002c3.467-4.008,14.73-10.413,13.005-13.001
		c-12.175,9.493-30.371-2.348-46.004,1.998C1367.607,874.057,1380.132,876.205,1395,876.002z M1374.997,884.001
		c-26.782,11.508-46.517-12.805-73.999-7.003c21.077,8.928,39.331,20.675,71.004,19.003c6.193-5.14,12.695-9.97,18.002-15.999
		c-14.267-0.074-24.13-4.541-31.999-11.003C1354.408,879.635,1368.608,880.123,1374.997,884.001z M1274.997,874
		c-0.383,1.428-1.196,1.688,0,2.998c8.862,4.004,17.732,13.51,25,18.002c8.113,5.017,24.495,9.054,37.003,10.002
		c9.831,0.744,23.609,1.953,29.005-5.001C1328.293,903.333,1307.59,875.782,1274.997,874z M838.001,929.001
		c-12.313-11.386-30.998-30.034-22.005-52.999C764.826,876.701,823.255,930.563,838.001,929.001z M716.999,910.999
		c0.313,6.926-0.521,13.27,1.001,20.004c8.17,36.193,44.625,66.052,70.003,84.997c9.927,7.418,22.117,12.936,28.994,23.002
		c-21.836-11.222-43.952-27.258-62.995-46c-18.998-18.697-41.544-46.021-41-81.002c-5.371,1.962-12.772-3.336-13.004,0
		c-2.128,11.332,1.261,21.61,5.005,31.002c3.731,9.375,10.836,17.762,9.998,25c-7.987-7.621-19.332-28.617-19.999-48.002
		c-0.139-3.951,1.343-7.642,1.001-10.999c-0.627-6.104-4.802-9.468-3.003-15.002c1.814-5.583,8.748-4.964,12.003-8
		c-13.175-2.417-20.801,13.685-22.005,23.002c-4.016,31.133,10.832,62.847,26.001,79c13.558,14.433,33.732,16.659,50,27.999
		c8.765,6.107,14.522,16.846,22.001,23.999c15.206,14.551,45.632,15.169,68.003,15.003c-24.594-15.78-49.797-37.427-71.002-64.002
		c-21.346-26.741-49.117-70.39-36.002-112c-2.287-1.045-6.03-0.635-8-2.002C737.775,895.272,724.921,901.551,716.999,910.999z
		 M829,914.002c7.707,9.863,19.125,20.235,29.997,21c-14.705-12.959-28.458-26.871-27.995-55c-3.719-0.619-6.282-2.385-10.001-3.004
		C811.935,889.592,821.782,904.762,829,914.002z M793,962c2.295,3.772,7.77,9.221,5.003,14.002
		c-15.713-20.044-30.524-46.024-29.002-80.001c-3.394-3.609-5.945-8.057-11.003-10.002c-0.862,13.095-0.171,25.399,3.003,37
		c3.052,11.161,11.809,20.296,10.002,29c-13.261-14.982-19.06-44.987-17-68.999c-2.832-0.166-4.167-1.831-7.003-1.998
		c-13.66,42.628,15.808,87.09,39.001,113.998c22.687,26.326,50.056,46.432,73.997,64.002c32.609,7.426,46.851,37.536,84.001,35.998
		c6.323-0.261,12.272-3.324,19.002-2.999c7.861,0.379,13.892,6.975,21.997,1.001c-50.391-6.637-86.743-34.586-118.001-61.999
		c-30.917-27.12-62.973-59.685-73.997-106.002c-8.22-5.782-14.014-19.312-21-23.002C773.745,926.38,783.576,946.489,793,962z
		 M867.998,935.999c7.015,2.779,14.485,3.256,20.003,5.001c43.856,13.871,58.708,59.908,106.999,65.999
		c-27.368-17.802-68.286-55.407-80.998-92.997c-2.774-8.211-2.164-16.153-10.001-19.002c-6.137-2.23-15.089,0.256-16,5.001
		c-1.286,6.701,12.842,14.953,17.001,22.001c3.931,6.657,6.355,12.316,4.996,21c-6.25-3.418-8.228-11.771-13.997-16.003
		c-10.091-7.39-23.349-8.984-31.999-17.998c-9.847-10.262-13.199-24.516-29.004-27.002
		C836.838,904.892,848.401,928.235,867.998,935.999z M1309.998,914.999c-17.098-1.164-38.443-2.941-51-9.997
		c-3.598-2.026-5.641-6.011-9.001-8c-9.221-5.465-19.515-7.313-28.996-10.002c24.976,15.308,53.427,37.748,92.001,37
		c4.5-0.086,12.589-3.687,15.999,0c-36.458,12.32-73.039-9.94-95.996-25c-6.86-4.496-14.185-10.56-22.005-10.999
		c16.797,19.202,41.918,38.749,76,43.998c2.783,1.485-2.115,4.468,2.002,4c9.481,1.188,17.229,4.105,24,8
		c13.199-11.133,31.29-22.705,40.999-33.997C1343.047,915.699,1325.444,916.053,1309.998,914.999z M1241.997,926.002
		c13.493,5.538,24.983,14.046,40.007,9c-33.041-4.63-54.102-26.57-73.999-41.003
		C1218.234,908.933,1222.621,918.043,1241.997,926.002z M1026.999,976.002c6.592,6.417,13.37,17.956,13.004,27.999
		c-6.771-3.158-7.56-10.682-11.002-14.999C1018.299,975.574,1004.514,976.771,987,970c-3.76-1.453-6.925-5.155-11.002-6.999
		c-5.2-2.355-11.825-2.718-16-5.001c-19.571-10.701-17.603-45.097-43.001-47.001c7.585,18.575,22.371,39.083,38.005,57.003
		c12.809,14.681,35.059,37.309,53.995,40.999c2.849,0.554,7.902-0.406,12.004,0c12.517,1.241,25.407,5.945,34.001,10.999
		c9.31,5.477,14.681,14.93,23.999,21c14.713,9.578,27.774,4.509,39.998-1.998C1078.806,1028.195,1056.841,993.832,1026.999,976.002z
		 M1001.999,921.001c12.76,18.042,28.979,34.855,47.998,50c17.505,13.928,37.036,33.028,59,39.998
		c4.997,1.587,11.654-0.354,15.007,5.001c-30.762-1.563-53.296-22.893-74.007-39.001c-21.078-16.398-41.74-36.675-53.996-60.999
		c-5.696-0.224-11.279-5.037-17-1.998c8.008,25.83,35.904,45.085,61.002,66c24.292,20.243,45.776,44.348,72.998,54
		c21.777,7.719,40.112-7.634,55.998-14.002C1092.64,1008.362,1054.961,952.707,1001.999,921.001z M1016.004,964.999
		c-17.285-13.379-33.316-28.02-42-50C962.651,941.92,998.564,960.401,1016.004,964.999z M872.002,1030.002
		c31.633,27.262,69.458,54.496,118.001,59.997c-40.747-9.965-75.83-31.99-105.005-56.999
		c-29.158-24.995-56.624-55.676-70.996-93.998c-5.379-1.131-13.542-9.566-15.999-7.003
		C812.317,971.311,840.801,1003.109,872.002,1030.002z M1198.003,943.002c17.017,6.815,32.991,17.766,53.996,19.999
		c3.418,0.362,9.464-1.925,12.003,1.998c-29.703,6.714-59.619-15.597-73.999-22.998c-4.988,5.403,3.313,9.452,6.999,12
		c15.967,11.055,34.57,23.896,61.003,22.001c15.34-8.993,32.178-16.483,45.996-27.002c-20.63-2.734-39.192,6.002-58,2.999
		c-14.192-2.263-24.275-13.921-37.996-12c10.669,4.984,23.405,10.71,36.995,13.001c4.525,0.765,11.369-1.311,13.998,3.999
		c-25.27,2.584-44.149-9.826-61.996-17.997C1194.992,941.041,1197.441,940.964,1198.003,943.002z M820,943.999
		c27.018,53.353,71.858,96.973,123.999,125c18.14,9.753,40.486,18.62,64.006,16.003c-36.711-5.013-65.268-27.637-91.008-49.003
		c-28.752-23.864-58.952-50.899-70.996-88.997c-10.278-0.721-18.245-3.76-27.002-6.002C819.153,942.176,818.828,943.84,820,943.999z
		 M1168.999,978c24.878,11.133,52.417,24.829,70.003,7.002c-16.715,0.61-29.004-8.435-43.001-13c-8.309-2.714-15.861-1.506-25-3.003
		c-18.929-3.097-30.339-20.431-48.999-21.997c-0.667,0-1.335,0-2.002,0C1127.137,963.396,1148.979,969.044,1168.999,978z
		 M850.998,951.002c21.207,46.199,65.193,84.981,111.002,111.999c18.091,10.669,50.155,28.061,69.003,13.001
		c-51.896-11.442-85.775-40.897-113.005-77.002c-12.891,0.919-16.406-13.51-6.999-18.998c-10.62-20.382-32.52-29.484-61.003-32.003
		C849.956,949.378,850.469,950.196,850.998,951.002z M1110.999,950.001c4.184,20.056,19.157,22.843,39.999,34
		c21.443,11.475,43.726,27.255,65.006,13.001c-38.867-6.808-69.287-22.054-96.004-40.999c-1.863-2.471-3.353-5.314-4.997-8.004
		C1113.018,948.015,1113.726,950.729,1110.999,950.001z M1137,987c15.153,11.788,39.209,36.495,60.002,19.999
		c-34.636-7.702-64.201-25.801-86.003-42.997C1116.834,975.176,1125.217,977.837,1137,987z M921.001,997.999
		c17.692,24.23,48.689,49.142,79.997,64.001c14.893,7.068,37.402,17.717,48.999,5.001c-34.823-10.173-61.548-28.45-80.998-54
		c-18.628-5.037-30.974-16.357-43.001-27.999C926.982,991.98,922.278,993.274,921.001,997.999z M1057.004,1064.999
		c7.104-5.225,17.261-7.397,25-11.999c-14.877-2.129-18.979-15.023-33-17.998c-0.334,21.461-32.463,4.937-15.007-7.002
		c-10.782-13.762-42.398-6.197-57.999-10.999C998.19,1037.814,1022.417,1056.58,1057.004,1064.999z"/>
	<path fill-rule="evenodd" clip-rule="evenodd" d="M1599.997,939.002c0,1.331,0,2.665,0,4c-17.888-3.747-33.301,3.255-43.994,9.998
		c17.79-1.889,32.845,6.982,43.994,15.002c0,1.664,0.008,3.333,0,4.997c-12.126-11.06-41.992-23.552-61.995-10.999
		c11.067-0.235,21.517,3.906,29.996,8c8.081,3.898,18.726,7.788,20.004,15.999c-17.082-10.083-43.604-28.092-70.004-15.999
		c37.964,0.37,54.004,22.664,81.999,33c0,1.668,0.008,3.336,0,5c-31.584-14.058-48.877-33.846-88.997-35.001
		c-54.387-1.559-100.854,22.774-150,21c18.343,13.11,47.135,8.085,76.001,3.003c26.563-4.68,51.099-11.304,80.997-9.001
		c23.169,1.782,47.282,9.721,59.001,23.999c-14.404-4.932-27.734-16.26-43.994-15.999c26.326,8.337,41.951,27.376,66.992,36.999
		c0,1.335,0,2.666,0,4c-33.032-12.65-58.447-44.051-104.997-43.998c-36.328,0.037-67.871,12.806-107.999,14.998
		c11.067,4.834,29.288,7.32,44.002,2.999c4.695-1.375,6.722-5.66,10.994-5.997c5.51-0.439,7.976,2.808,11.003,3.999
		c66.902-6.226,105.493,24.496,146.997,47.002c0,1.33,0,2.665,0,3.999c-43.188-21.476-77.645-51.688-145.996-48.002
		c1.75,4.31,2.759,9.863,1.001,14.999c53.442,7.304,96.745,13.058,122.998,46c5.916,7.426,10.156,15.385,21.997,18.001
		c0,1.668,0.008,3.333,0,5.001c-36.531-22.767-85.327-36.927-146.997-34.001c-70.223,3.333-126.254,28.476-192,23.002
		c-12.33-1.029-24.391-6.543-29.997-14.001c-14.885-19.8,2.067-53.841,29.997-46c4.402,1.232,8.512,4.772,7.999,13
		c-5.184,2.063-2.767-6.115-5.997-2.999c-0.586,6.368,5.428,6.93,9,6.999c14.217,0.276,22.648-23.421,6.999-31.002
		c-3.044-0.956-10.14,2.145-10.002-1.998c7.69-6.233,17.155,1.852,21.005,5.998c12.361-4.858,18.099-8.077,31.998-8.996
		c41.309-2.739,66.488,27.819,95.996,30.997c15.585,1.681,29.785-1.407,33-10.001c3.508-9.343-5.77-26.172-12.996-12.997
		c-1.571,5.233,6.697,0.635,5.997,4.997c-1.912,11.133-14.014,13.762-27.002,10.002c-8.528-2.47-19.8-10.62-31.998-18.002
		c-12.671-7.67-26.718-12.149-33-17c-23.486-18.119,11.775-40.926,31.006-42.997c41.316-4.452,57.292,16.585,90.999,18.998
		C1532.858,974.216,1553.179,934.685,1599.997,939.002z M1358.998,970c21.045,16.472,53.101-3.499,75-8
		C1414.45,954.338,1367.323,947.47,1358.998,970z M1441.005,966c-27.092-1.208-70.663,32.568-87.004,2.999
		c-2.344,3.32-4.834,6.498-4.004,13c29.924,20.581,81.145-5.781,114.006-9.997C1454.57,972.889,1450.014,966.403,1441.005,966z
		 M1306.003,1013.001c10.962,19.243,50.171,19.063,77.995,14.999C1364.409,1016.834,1336.081,1004.44,1306.003,1013.001z
		 M1403,1017.001c8.342,4.671,26.985,15.308,36.003,4c-4.289-0.383-4.216-5.123-6.999-6.999
		C1424.663,1017.16,1408.452,1015.097,1403,1017.001z M1262,1051.002c43.457,27.282,119.768-21.57,154.005,10.998
		c56.38-10.836,123.95-2.481,160.994,17.001c-18.498-23.088-48.137-35.665-84.001-43.002c-11.035-2.254-28.67-7.153-37.996-4.996
		c-5.656,1.306-8.675,7.251-13.997,8.996c-21.387,7.015-36.931-6.624-52.002-7.999c-5.396-0.493-10.8,1.676-16,2.002
		c-24.829,1.542-47.444,0.439-62.003-9.001c-5.152-3.341-6.348-12.447-16-8c5.371,23.486,47.355,20.268,73.999,22.998
		c-29.744,5.583-67.073,1.868-77.995-17.997c3.305,5.452-2.742,12.272-1,15.999c4.671,5.327,17.553,2.441,21.996,8
		c-9.521,3.04-20.084-1.144-25-6.002c-6.819,5.827-23.438,9.351-28.002-0.997c-2.694-5.273,5.428-8.447,1-9
		C1242.371,1031.137,1256.401,1047.482,1262,1051.002z M1254.001,1071.001c3.345,1.159,9.44,0.501,10.001,5.001
		c-14.347,1.676-26.781-7.219-34-16c4.053,14.026,17.513,19.792,33,21.001c46.289,3.601,109.7-13.388,146.997-19.003
		c-9.473-3.629-20.288-7.869-34.001-7.999c-39.648-0.379-128.076,31.01-127.995-25c-5.485,2.681-9.692,4.984-10.001,10.998
		c-1.034,19.861,33.048,26.095,52.002,29c-26.465,6.368-53.581-8.984-56.006-29.997
		C1223.67,1056.768,1241.875,1066.802,1254.001,1071.001z"/>
</g>
</svg>
